<svg width="261" height="261" viewBox="0 0 261 261" fill="none" xmlns="http://www.w3.org/2000/svg">
<rect x="16" y="17" width="230" height="229" fill="black"/>
<path d="M110.304 151.879C110.304 153.529 109.965 155.053 109.288 156.449C108.611 157.803 107.638 158.967 106.368 159.94C105.099 160.914 103.533 161.675 101.671 162.226C99.8512 162.776 97.7565 163.051 95.3867 163.051C92.7207 163.051 90.2663 162.755 88.0234 162.162C85.8229 161.57 83.9398 160.639 82.374 159.369C80.766 158.1 79.5176 156.47 78.6289 154.481C77.7402 152.493 77.2536 150.102 77.1689 147.309H59.6494C59.6494 152.09 60.5592 156.259 62.3789 159.813C64.2409 163.368 66.7588 166.457 69.9326 169.081C73.2757 171.747 77.1901 173.778 81.6758 175.175C86.2038 176.529 90.7741 177.206 95.3867 177.206C100.084 177.206 104.422 176.656 108.399 175.556C112.377 174.413 115.805 172.742 118.683 170.541C121.56 168.383 123.803 165.738 125.411 162.606C127.062 159.433 127.887 155.814 127.887 151.752C127.887 147.055 126.808 142.908 124.649 139.311C122.491 135.714 119.592 132.561 115.953 129.853C113.541 128.202 110.896 126.742 108.019 125.473C105.141 124.203 102.115 123.124 98.9414 122.235C95.9792 121.431 93.3132 120.564 90.9434 119.633C88.6159 118.702 86.627 117.665 84.9766 116.522C83.3262 115.422 82.0566 114.174 81.168 112.777C80.3216 111.381 79.8984 109.815 79.8984 108.08C79.8984 106.43 80.2158 104.906 80.8506 103.51C81.5277 102.071 82.501 100.823 83.7705 99.7646C85.04 98.749 86.5846 97.9661 88.4043 97.416C90.2663 96.8236 92.3822 96.5273 94.752 96.5273C97.3333 96.5273 99.5762 96.887 101.48 97.6064C103.427 98.2835 105.056 99.2357 106.368 100.463C107.638 101.732 108.59 103.235 109.225 104.97C109.902 106.705 110.283 108.609 110.367 110.683H127.76C127.76 106.535 126.956 102.727 125.348 99.2568C123.74 95.7868 121.497 92.7822 118.619 90.2432C115.742 87.7464 112.293 85.7998 108.272 84.4033C104.295 83.0068 99.8936 82.3086 95.0693 82.3086C90.4144 82.3086 86.098 82.9222 82.1201 84.1494C78.1423 85.3343 74.6934 87.0482 71.7734 89.291C68.8535 91.5339 66.5684 94.2422 64.918 97.416C63.2676 100.59 62.4424 104.123 62.4424 108.017C62.4424 111.402 63.056 114.534 64.2832 117.411C65.5527 120.289 67.4147 122.912 69.8691 125.282C72.3236 127.652 75.4762 129.831 79.3271 131.82C83.2204 133.809 87.7272 135.502 92.8477 136.898C96.1484 137.787 98.8991 138.76 101.1 139.818C103.342 140.834 105.162 141.955 106.559 143.183C107.913 144.452 108.865 145.806 109.415 147.245C110.007 148.684 110.304 150.229 110.304 151.879ZM201.456 176V161.845H160.895L178.287 143.437C181.292 140.347 184.021 137.406 186.476 134.613C188.93 131.778 191.046 129.006 192.823 126.298C194.558 123.59 195.891 120.86 196.822 118.109C197.796 115.316 198.282 112.396 198.282 109.35C198.282 105.329 197.647 101.669 196.378 98.3682C195.108 95.0251 193.268 92.1686 190.855 89.7988C188.401 87.429 185.354 85.5882 181.715 84.2764C178.118 82.9645 173.971 82.3086 169.273 82.3086C164.365 82.3086 159.879 83.1126 155.816 84.7207C151.796 86.2865 148.368 88.4447 145.533 91.1953C142.656 93.946 140.434 97.1621 138.868 100.844C137.302 104.483 136.52 108.355 136.52 112.46H154.229C154.229 109.963 154.547 107.742 155.182 105.795C155.816 103.848 156.747 102.219 157.975 100.907C159.16 99.6377 160.641 98.6855 162.418 98.0508C164.238 97.3737 166.332 97.0352 168.702 97.0352C170.522 97.0352 172.172 97.3314 173.653 97.9238C175.177 98.5163 176.489 99.3626 177.589 100.463C178.647 101.605 179.472 102.981 180.064 104.589C180.657 106.197 180.953 108.038 180.953 110.111C180.953 111.508 180.72 112.947 180.255 114.428C179.832 115.909 179.133 117.496 178.16 119.188C177.145 120.924 175.833 122.828 174.225 124.901C172.617 126.975 170.649 129.281 168.321 131.82L138.424 163.939V176H201.456Z" fill="white"/>
<rect x="134" y="230" width="127" height="31" fill="white"/>
<rect y="230" width="134" height="31" fill="#0F8571"/>
<rect y="252" width="86" height="31" transform="rotate(-90 0 252)" fill="#0F8571"/>
<rect x="230" y="131" width="31" height="99" fill="white"/>
<rect x="230" y="32" width="31" height="99" fill="#7C44F1"/>
<rect x="134" y="32" width="31" height="127" transform="rotate(-90 134 32)" fill="#7C44F1"/>
<rect y="32" width="31" height="134" transform="rotate(-90 0 32)" fill="#FFD400"/>
<rect y="18" width="31" height="148" fill="#FFD400"/>
</svg>
