<svg width="134" height="60" viewBox="0 0 134 60" fill="none" xmlns="http://www.w3.org/2000/svg">
<path d="M110.021 36.8331C110.424 37.7398 110.928 38.5459 111.633 39.2511C112.338 39.9564 113.144 40.4601 114.051 40.8632C114.958 41.2662 116.066 41.4677 117.174 41.4677C118.383 41.4677 119.492 41.2662 120.6 40.7624C121.608 40.3594 122.514 39.6541 123.22 38.8481L121.205 36.3293C120.701 36.9338 120.096 37.3368 119.391 37.7398C118.686 38.0421 117.98 38.2436 117.174 38.2436C116.57 38.2436 115.965 38.1429 115.462 37.9414C114.958 37.7399 114.454 37.4376 114.051 37.0346C113.648 36.6316 113.346 36.2286 113.144 35.6241C112.943 35.1203 112.842 34.5158 112.842 33.8105C112.842 33.206 112.943 32.6015 113.144 31.997C113.346 31.4932 113.648 30.9895 114.051 30.5865C114.454 30.1835 114.857 29.8812 115.462 29.6797C115.965 29.4782 116.57 29.3774 117.174 29.3774C117.98 29.3774 118.686 29.5789 119.391 29.8812C120.096 30.2842 120.701 30.6872 121.205 31.2917L123.22 28.7729C122.514 27.9669 121.608 27.3624 120.6 26.8586C119.592 26.4556 118.484 26.1534 117.174 26.1534C116.066 26.1534 115.059 26.3549 114.051 26.7579C113.144 27.1609 112.238 27.6647 111.633 28.3699C110.928 29.0752 110.424 29.8812 110.021 30.788C109.618 31.6947 109.417 32.7023 109.417 33.8105C109.417 34.9188 109.618 35.9263 110.021 36.8331ZM78.788 26.6571H75.3624V40.9639H78.788V26.6571ZM87.5534 26.7579C86.8481 27.0602 86.3444 27.6647 85.8406 28.3699V26.6571H82.5158V40.9639H85.9413V33.1053C85.9413 32.5008 86.0421 31.997 86.1429 31.4932C86.3444 30.9895 86.5459 30.6872 86.8481 30.2842C87.1504 29.982 87.4526 29.6797 87.8556 29.5789C88.2586 29.3774 88.6617 29.3774 89.1654 29.3774C89.5684 29.3774 89.9714 29.3774 90.3744 29.4782C90.7774 29.5789 91.1804 29.6797 91.4827 29.8812L92.188 26.6571C91.785 26.5564 91.4827 26.4556 91.0797 26.3549C90.6767 26.2541 90.2737 26.2541 89.7699 26.2541C89.0647 26.2541 88.2586 26.3549 87.5534 26.7579ZM96.7218 32.5008C96.8226 31.997 96.9233 31.594 97.1248 31.191C97.3263 30.788 97.5278 30.4857 97.8301 30.1835C98.1323 29.8812 98.5353 29.6797 98.9383 29.4782C99.3413 29.2767 99.8451 29.2767 100.349 29.2767C100.853 29.2767 101.256 29.3774 101.659 29.4782C102.062 29.6797 102.364 29.8812 102.666 30.1835C102.968 30.4857 103.17 30.788 103.371 31.191C103.573 31.594 103.674 31.997 103.674 32.5008H96.7218ZM97.4271 26.7579C96.5203 27.1609 95.815 27.6647 95.2105 28.2692C94.606 28.8737 94.1023 29.6797 93.6992 30.6872C93.2962 31.6947 93.1955 32.6015 93.1955 33.7098C93.1955 34.818 93.397 35.9263 93.6992 36.8331C94.1023 37.7398 94.606 38.5459 95.2105 39.2511C95.815 39.9564 96.621 40.4601 97.5278 40.7624C98.4346 41.1654 99.4421 41.2662 100.45 41.2662C101.558 41.2662 102.565 41.0647 103.573 40.7624C104.58 40.4601 105.487 39.9564 106.394 39.2511L104.782 36.7323C104.177 37.2361 103.472 37.5383 102.767 37.8406C102.062 38.1429 101.356 38.2436 100.651 38.2436C100.147 38.2436 99.6436 38.1429 99.2406 38.0421C98.7368 37.9414 98.3338 37.7399 98.0316 37.4376C97.6286 37.1353 97.3263 36.8331 97.1248 36.4301C96.9233 36.0271 96.7218 35.5233 96.621 34.9188H106.998C106.998 34.7173 107.099 34.5158 107.099 34.3143V33.7098C107.099 32.6015 106.898 31.594 106.595 30.6872C106.293 29.7805 105.789 28.9744 105.185 28.2692C104.58 27.5639 103.875 27.0602 103.069 26.7579C102.263 26.3549 101.356 26.1534 100.349 26.1534C99.2406 26.2541 98.3338 26.3549 97.4271 26.7579ZM62.5669 37.8406C62.0632 37.6391 61.6601 37.3368 61.2571 36.9338C60.8541 36.5308 60.6526 36.0271 60.4511 35.5233C60.2496 35.0195 60.1489 34.415 60.1489 33.8105C60.1489 33.206 60.2496 32.6015 60.4511 32.0977C60.6526 31.594 60.8541 31.0902 61.2571 30.6872C61.6601 30.2842 62.0632 29.982 62.5669 29.7805C63.0707 29.5789 63.6752 29.4782 64.2797 29.4782C64.8842 29.4782 65.4887 29.5789 65.9925 29.7805C66.4962 29.982 66.8992 30.2842 67.3022 30.6872C67.7053 31.0902 67.9068 31.4932 68.1083 32.0977C68.3098 32.6015 68.4105 33.206 68.4105 33.8105C68.4105 34.415 68.3098 35.0195 68.1083 35.5233C67.9068 36.0271 67.6045 36.5308 67.3022 36.9338C66.8992 37.3368 66.4962 37.6391 65.9925 37.8406C65.4887 38.0421 64.8842 38.1429 64.2797 38.1429C63.6752 38.1429 63.0707 38.0421 62.5669 37.8406ZM71.6346 19H68.209V28.2692C67.7053 27.6647 67.2015 27.1609 66.3955 26.7579C65.6902 26.3549 64.7835 26.2541 63.7759 26.2541C62.7684 26.2541 61.8617 26.4556 60.9549 26.8586C60.0481 27.2617 59.3429 27.7654 58.7383 28.4707C58.1338 29.1759 57.6301 29.982 57.2271 30.8887C56.8241 31.7955 56.7233 32.803 56.7233 33.9113C56.7233 35.0196 56.9248 36.0271 57.2271 36.9338C57.6301 37.8406 58.0331 38.6466 58.7383 39.3519C59.3429 40.0571 60.1489 40.5609 60.9549 40.9639C61.8617 41.3669 62.7684 41.5684 63.7759 41.5684C64.7835 41.5684 65.6902 41.3669 66.3955 41.0647C67.1008 40.7624 67.7053 40.2586 68.209 39.5534V41.1654H71.6346V19ZM21.3594 37.8406C20.8556 37.6391 20.3519 37.3368 20.0496 36.9338C19.6466 36.5308 19.3444 36.1278 19.1429 35.5233C18.9414 35.0195 18.8406 34.415 18.8406 33.7098C18.8406 33.1053 18.9414 32.5008 19.1429 31.8962C19.3444 31.3925 19.6466 30.8887 20.0496 30.4857C20.4526 30.0827 20.8556 29.7805 21.3594 29.5789C21.8632 29.3774 22.4677 29.2767 23.0722 29.2767C23.6767 29.2767 24.2812 29.3774 24.785 29.5789C25.2887 29.7805 25.7925 30.0827 26.0947 30.4857C26.4977 30.8887 26.8 31.2917 27.0015 31.8962C27.203 32.4 27.3038 33.0045 27.3038 33.7098C27.3038 34.415 27.203 34.9188 27.0015 35.5233C26.8 36.0271 26.4977 36.5308 26.0947 36.9338C25.6917 37.3368 25.2887 37.6391 24.785 37.8406C24.2812 38.0421 23.6767 38.1429 23.0722 38.1429C22.4677 38.1429 21.8632 38.0421 21.3594 37.8406ZM20.0496 26.7579C19.1429 27.1609 18.3368 27.6647 17.6316 28.3699C16.9263 29.0752 16.4226 29.8812 16.0195 30.788C15.6165 31.6947 15.415 32.7023 15.415 33.8105C15.415 34.9188 15.6165 35.9263 16.0195 36.8331C16.4226 37.7398 16.9263 38.5459 17.6316 39.2511C18.3368 39.9564 19.1429 40.4601 20.0496 40.8632C20.9564 41.2662 22.0647 41.4677 23.1729 41.4677C24.2812 41.4677 25.2887 41.2662 26.1955 40.8632C27.1023 40.4601 27.9083 39.9564 28.6135 39.2511C29.3188 38.5459 29.8226 37.7398 30.2256 36.8331C30.6286 35.9263 30.8301 34.9188 30.8301 33.8105C30.8301 32.7023 30.6286 31.6947 30.2256 30.788C29.8226 29.8812 29.3188 29.0752 28.6135 28.3699C27.9083 27.6647 27.1023 27.1609 26.1955 26.7579C25.2887 26.3549 24.2812 26.1534 23.1729 26.1534C21.9639 26.2541 20.9564 26.4556 20.0496 26.7579ZM0.604511 36.8331C1.00752 37.7398 1.51128 38.5459 2.21654 39.2511C2.9218 39.9564 3.72782 40.4601 4.63459 40.8632C5.54135 41.2662 6.64962 41.4677 7.75789 41.4677C8.96692 41.4677 10.0752 41.2662 11.1835 40.7624C12.191 40.3594 13.0977 39.6541 13.803 38.8481L11.788 36.3293C11.2842 36.9338 10.6797 37.3368 9.97444 37.7398C9.26917 38.0421 8.56391 38.2436 7.75789 38.2436C7.15338 38.2436 6.54887 38.1429 6.04511 37.9414C5.54135 37.7399 5.03759 37.4376 4.63459 37.0346C4.23158 36.6316 3.92932 36.2286 3.72782 35.6241C3.52632 35.1203 3.42556 34.5158 3.42556 33.8105C3.42556 33.206 3.52632 32.6015 3.72782 31.997C3.92932 31.4932 4.23158 30.9895 4.63459 30.5865C5.03759 30.1835 5.4406 29.8812 6.04511 29.6797C6.54887 29.4782 7.15338 29.3774 7.75789 29.3774C8.56391 29.3774 9.26917 29.5789 9.97444 29.8812C10.6797 30.2842 11.2842 30.6872 11.788 31.2917L13.803 28.7729C13.0977 27.9669 12.191 27.3624 11.1835 26.8586C10.1759 26.4556 9.06767 26.1534 7.75789 26.1534C6.64962 26.1534 5.64211 26.3549 4.63459 26.7579C3.72782 27.1609 2.82105 27.6647 2.21654 28.3699C1.51128 29.0752 1.00752 29.8812 0.604511 30.788C0.201504 31.6947 0 32.7023 0 33.8105C0 34.9188 0.201504 35.9263 0.604511 36.8331ZM133.295 37.7398L132.388 38.0421C132.086 38.1429 131.783 38.1429 131.481 38.1429C131.179 38.1429 130.877 38.1429 130.574 38.0421C130.272 37.9414 130.071 37.8406 129.869 37.6391C129.668 37.4376 129.567 37.1353 129.466 36.8331C129.365 36.5308 129.265 36.1278 129.265 35.6241V29.6797H133.496V26.6571H129.265V22.3248H125.839V35.8256C125.839 37.7398 126.242 39.1504 127.149 40.0571C128.056 40.9639 129.365 41.4677 130.977 41.4677C131.582 41.4677 132.086 41.3669 132.589 41.2662C133.093 41.1654 133.496 40.9639 134 40.7624L133.295 37.7398ZM42.0135 40.9639H45.4391V33.0045C45.4391 31.7955 45.6406 30.8887 46.1444 30.2842C46.5474 29.6797 47.2526 29.3774 48.0586 29.3774C48.8647 29.3774 49.5699 29.6797 49.9729 30.2842C50.3759 30.8887 50.5774 31.7955 50.5774 33.0045V40.9639H54.003V31.997C54.003 31.191 53.9023 30.385 53.6 29.6797C53.2977 28.9744 52.9955 28.3699 52.4917 27.8662C51.988 27.3624 51.4842 26.9594 50.7789 26.6571C50.1744 26.3549 49.4692 26.2541 48.6632 26.2541C47.7564 26.2541 46.8496 26.4556 46.1444 26.8586C45.4391 27.2617 44.7338 27.8662 44.3308 28.6722C43.8271 27.8662 43.2226 27.2617 42.5173 26.8586C41.812 26.4556 41.006 26.2541 40.0992 26.2541C39.6962 26.2541 39.2932 26.2541 38.991 26.3549C38.6887 26.4556 38.3865 26.5564 38.0842 26.7579C37.782 26.9594 37.5804 27.0602 37.3789 27.2617C37.1774 27.4632 36.9759 27.6647 36.8752 27.8662V26.6571H33.5504V40.9639H36.8752V33.0045C36.8752 31.7955 37.0767 30.8887 37.4797 30.2842C37.8827 29.6797 38.4872 29.3774 39.394 29.3774C40.3008 29.3774 40.9053 29.6797 41.3083 30.2842C41.7113 30.8887 42.0135 31.7955 42.0135 33.0045V40.9639Z" fill="white"/>
</svg>
