<svg width="134" height="60" viewBox="0 0 134 60" fill="none" xmlns="http://www.w3.org/2000/svg">
<path d="M81.0501 25.1202C80.5405 24.7409 79.7387 24.5127 78.9608 24.5246C78.1159 24.5364 77.3082 24.8061 76.7464 25.2521V19.9478H74.1072V37.2459H76.7464V28.2168C76.7464 27.5871 77.2769 26.8937 78.2604 26.8522C78.6985 26.833 79.3066 27.0226 79.6135 27.4805C79.9414 27.965 79.922 28.6095 79.922 29.3132L79.919 37.2459H82.5582V29.214C82.5567 26.8448 82.2468 26.0018 81.0501 25.1202Z" fill="white"/>
<path d="M59.585 31.0601C59.585 32.7521 59.5313 33.2292 59.5179 33.3759C59.4255 34.3152 59.0232 35.3094 57.9234 35.3094C56.8251 35.3094 56.3795 34.2471 56.3318 33.3314C56.3289 33.3255 56.2633 32.7521 56.2633 31.0601C56.2633 29.3636 56.3304 28.6584 56.3318 28.6524C56.3453 27.6968 56.843 26.7411 57.9234 26.7411C59.0038 26.7411 59.503 27.6968 59.5164 28.6421C59.5179 28.6584 59.585 29.3636 59.585 31.0601ZM62.1377 29.0184C61.7637 25.3202 59.6521 24.5261 57.9189 24.5261C55.463 24.5261 53.9684 26.0803 53.6986 29.0125C53.6748 29.2466 53.639 29.6777 53.6256 31.0601C53.6167 32.0661 53.6807 32.8899 53.6942 33.0988C53.8611 35.8369 55.4437 37.5245 57.9189 37.5245C60.3957 37.5245 61.9723 35.8087 62.1452 33.0988C62.1571 32.9062 62.2137 32.0661 62.2137 31.0601C62.2137 30.6037 62.1705 29.3651 62.1377 29.0184Z" fill="white"/>
<path d="M86.9618 29.5014C86.9812 28.9295 86.9812 28.808 86.9931 28.6421C87.0677 27.6064 87.5326 26.7485 88.6011 26.7411C89.8663 26.7322 90.1643 27.9649 90.209 28.648C90.2314 29.0065 90.2597 29.2466 90.2552 29.5014H86.9618ZM90.221 32.9684C90.221 32.9684 90.2254 33.161 90.1956 33.3951C90.1211 34.0056 89.8797 35.3094 88.5951 35.3094C87.5013 35.3094 87.0796 34.3212 87.0066 33.3359C86.9931 33.0559 86.941 32.7432 86.944 31.6809H92.8288C92.8288 31.6809 92.8393 30.8097 92.8229 30.2867C92.8139 30.0807 92.8035 29.7385 92.7543 29.0169C92.6739 27.9072 92.2566 26.6952 91.6173 25.9114C90.8781 25.0046 89.8335 24.5261 88.5951 24.5261C86.2182 24.5261 84.7325 26.0655 84.4404 29.0139C84.4136 29.2777 84.3704 29.6466 84.3704 31.0601C84.3704 32.0661 84.427 32.9077 84.4374 33.0988C84.5969 35.7924 86.1989 37.5245 88.5951 37.5245C90.9854 37.5245 92.5874 35.8369 92.7543 32.9684H90.221Z" fill="white"/>
<path d="M88.1675 11.1187L104.567 30.1978L88.172 49.0146H45.276L28.8165 30.1341L45.279 11.1187H88.1675ZM89.2047 9H75.5474H44.2433L26 30.0674L44.2448 51H89.2032L107.381 30.1356L89.2047 9Z" fill="white"/>
<path d="M45.8095 22.2962H47.0583C48.4159 22.2962 49.1521 23.0118 49.1849 24.2905C49.1878 24.3838 49.1983 24.492 49.1983 24.6905C49.1983 24.9231 49.1953 25.0061 49.1864 25.095C49.1104 25.8551 48.7751 27.1797 47.185 27.1797H45.8095V22.2962ZM52.0595 36.1747C52.0595 36.1777 51.7883 31.9283 51.7883 31.9283C51.6706 30.0289 51.1728 28.9087 50.1848 28.3353C50.8986 27.9086 51.8226 26.8522 51.8121 24.6476C51.8002 21.2887 49.7035 20.1108 47.2357 20.0841H43.2031V37.2459H45.808L45.8095 29.3947H47.2595C48.0985 29.3947 49.0433 30.1237 49.1864 32.1728L49.4576 36.191C49.4799 36.7599 49.5887 37.2474 49.5887 37.2474H52.1951C52.1936 37.2474 52.0819 36.7733 52.0595 36.1747Z" fill="white"/>
<path d="M69.8467 32.8499C69.8363 33.0396 69.8229 33.2099 69.8139 33.3314C69.7394 34.2901 69.4011 35.3094 68.2224 35.3094C67.1226 35.3094 66.6889 34.2041 66.6085 33.3907C66.5608 32.8958 66.5727 32.5136 66.5623 31.0601C66.5504 29.3636 66.6055 28.928 66.6293 28.6524C66.7232 27.5797 67.1405 26.7485 68.2224 26.7411C69.3341 26.7337 69.802 27.6968 69.8139 28.6421C69.8139 28.6524 69.8378 28.8806 69.8542 29.3829H72.465C72.4561 29.2095 72.4486 29.0658 72.4427 28.9813C72.1461 25.3943 69.9495 24.5261 68.2164 24.5261C65.7605 24.5261 64.2644 26.0803 63.9946 29.0125C63.9708 29.2466 63.935 29.6777 63.9231 31.0601C63.9112 32.0661 63.9753 32.8899 63.9902 33.0988C64.1586 35.8369 65.7397 37.5185 68.2164 37.5245C70.7811 37.5334 72.1968 35.9776 72.4427 33.0988C72.4501 32.9936 72.465 32.921 72.4576 32.8499H69.8467Z" fill="white"/>
</svg>
