<svg width="134" height="60" viewBox="0 0 134 60" fill="none" xmlns="http://www.w3.org/2000/svg">
<path fill-rule="evenodd" clip-rule="evenodd" d="M41 4H93V56H41V4ZM43.5005 22.4728H46.6523L47.3202 19.2228H50.8313L51.4138 22.4728H55.2845L52.0646 6.73597H47.0461L43.5005 22.4728ZM49.1528 9.98598H49.187L50.3004 16.486H47.8511L49.1528 9.98598ZM61.0396 22.4728H56.3294V6.73597H60.56C65.3557 6.73597 67.5995 9.64387 67.5995 14.2623C67.5995 18.7097 65.7666 22.4728 61.0396 22.4728ZM60.56 9.4728H60.2345V19.5649H60.6626C63.4031 19.5649 63.4031 16.1439 63.4031 14.0912C63.4031 12.3807 63.146 9.4728 60.56 9.4728ZM67.1372 22.4728H70.3915L71.0765 19.2228H74.6905L75.3071 22.4728H79.2978L75.958 6.73597H70.8024L67.1372 22.4728ZM72.9604 9.98598H73.012L74.1425 16.486H71.6245L72.9604 9.98598ZM85.2754 9.30189C86.6797 9.30189 86.9538 11.1835 86.9538 12.2098H90.5849C90.5849 8.95978 88.9235 6.39399 85.1896 6.39399C80.4452 6.39399 79.1777 10.6703 79.1777 14.6045C79.1777 18.7098 80.4623 22.644 85.1896 22.644C88.5639 22.644 90.5849 20.4203 90.5849 16.9993L87.2106 16.6572C87.1251 18.5387 86.7997 19.7361 85.3609 19.7361C83.5454 19.7361 83.3912 17.8545 83.3912 14.6045C83.3912 11.6966 83.6311 9.30189 85.2754 9.30189Z" fill="white"/>
</svg>
