<svg width="134" height="60" viewBox="0 0 134 60" fill="none" xmlns="http://www.w3.org/2000/svg">
<path d="M75.254 35.5109H68.6833V31.7822H75.2573C76.3383 31.8 77.2108 32.6179 77.2108 33.6393C77.2108 34.6607 76.3347 35.5107 75.2538 35.5107L75.254 35.5109ZM68.6831 24.5787H75.1407C76.0238 24.5894 76.7727 25.2787 76.7727 26.1823C76.7727 27.0823 75.9885 27.8001 75.1018 27.7894H68.6831V24.5787ZM78.9662 29.793C80.1814 28.9287 80.6407 27.4966 80.6407 25.9217C80.6407 22.9574 78.1714 20.5823 75.1442 20.5823H64.1792V39.5074H75.5751V39.5147C78.7756 39.5147 81.4392 37.0182 81.4392 33.961C81.4392 31.9681 80.2523 30.493 78.9664 29.793L78.9662 29.793ZM95.8766 20.5393V31.1786C95.8766 34.4322 93.9973 35.7967 91.6871 35.7967C89.3733 35.7967 87.5081 34.4359 87.5081 31.1823V20.5393H82.8414V31.2106C82.8414 38.0177 86.7979 40 91.6871 40C96.5796 40 100.54 38.0179 100.54 31.2106V20.5393H95.8766ZM112.25 27.9143C108.474 27.0857 107.199 26.7179 107.199 25.5072C107.199 24.4393 108.566 23.9 110.724 23.9C112.762 23.9 115.225 24.7786 116.669 25.6536L118.142 21.8036C115.952 20.8821 113.317 20 109.834 20C105.266 20 102.416 22.7 102.416 26C102.416 29.3036 104.765 30.757 109.42 31.7537C113.031 32.5251 114.009 32.9894 114.009 34.1251C114.009 35.2608 112.561 35.6787 110.604 35.6787C108.071 35.6787 105.634 34.8251 103.337 33.8287L101.949 37.5821C104.694 38.8678 107.545 39.8999 110.943 39.8999C116.606 39.8999 118.916 37.1642 118.916 33.9749C118.916 31.1392 116.973 28.9536 112.25 27.9142L112.25 27.9143ZM24.4566 20.5822L15 39.5036L20.6168 39.5071L22.0298 36.4641H28.4802L26.4737 32.3177H23.9267L26.3253 27.1427L32.3658 39.5071H37.9968L28.173 20.5822H24.4566ZM62.4516 26.8752C62.4516 23.4289 60.1131 20.6322 55.3053 20.6322H45.5942V39.5573L50.0947 39.5539V24.6292H55.6159C57.2479 24.6292 57.9262 25.6507 57.9262 26.8649C57.9262 28.0828 57.2126 29.0578 55.5805 29.0578H51.7194L57.5621 39.5542H62.1825C62.1825 39.5542 58.1836 32.6935 58.205 32.6898C61.0911 31.7825 62.4512 29.5718 62.4512 26.8755L62.4516 26.8752ZM38.9598 39.5148H43.6156V20.5931H38.9598V39.5148Z" fill="white"/>
</svg>
