<svg width="134" height="60" viewBox="0 0 134 60" fill="none" xmlns="http://www.w3.org/2000/svg">
<path d="M99.6705 43.1983C96.718 43.1983 93.8639 42.2141 91.6987 40.541C94.0607 37.4901 95.537 33.7502 95.537 29.6167C95.537 25.4832 94.1591 21.6449 91.6987 18.6924C93.9623 17.0193 96.718 16.0351 99.6705 16.0351C107.15 16.0351 113.154 22.137 113.154 29.6167C113.252 37.0964 107.15 43.1983 99.6705 43.1983ZM88.8446 37.6869C87.1715 35.4233 86.1874 32.6676 86.1874 29.6167C86.1874 26.5658 87.1715 23.8101 88.8446 21.5465C90.5177 23.8101 91.5019 26.5658 91.5019 29.6167C91.5019 32.6676 90.5177 35.4233 88.8446 37.6869ZM85.9905 40.541C83.7269 42.2141 80.9712 43.1983 78.0187 43.1983C75.0662 43.1983 72.3105 42.2141 70.0469 40.541C72.4089 37.4901 73.8852 33.7502 73.8852 29.6167C73.8852 25.4832 72.5073 21.6449 70.0469 18.6924C72.3105 17.0193 75.0662 16.0351 78.0187 16.0351C80.9712 16.0351 83.8253 17.0193 85.9905 18.6924C83.6285 21.7433 82.1522 25.4832 82.1522 29.6167C82.1522 33.7502 83.6285 37.5885 85.9905 40.541ZM67.0944 37.6869C65.4213 35.4233 64.4371 32.6676 64.4371 29.6167C64.4371 26.5658 65.4213 23.8101 67.0944 21.5465C68.7675 23.8101 69.7517 26.5658 69.7517 29.6167C69.7517 32.6676 68.7675 35.4233 67.0944 37.6869ZM64.2403 40.541C61.9767 42.2141 59.221 43.1983 56.2685 43.1983C53.316 43.1983 50.5603 42.2141 48.2967 40.541C50.6587 37.4901 52.135 33.7502 52.135 29.6167C52.135 25.4832 50.7571 21.6449 48.2967 18.6924C50.5603 17.0193 53.316 16.0351 56.2685 16.0351C59.221 16.0351 62.0751 17.0193 64.2403 18.6924C61.8783 21.7433 60.402 25.4832 60.402 29.6167C60.5004 33.7502 61.8783 37.5885 64.2403 40.541ZM45.3442 37.6869C43.6711 35.4233 42.6869 32.6676 42.6869 29.6167C42.6869 26.5658 43.6711 23.8101 45.3442 21.5465C47.0173 23.8101 48.0014 26.5658 48.0014 29.6167C48.0014 32.6676 47.0173 35.4233 45.3442 37.6869ZM42.4901 40.541C40.2265 42.2141 37.4708 43.1983 34.5183 43.1983C27.0386 43.1983 21.0351 37.0964 21.0351 29.6167C21.0351 22.137 27.0386 16.0351 34.5183 16.0351C37.4708 16.0351 40.3249 17.0193 42.4901 18.6924C40.1281 21.7433 38.6518 25.4832 38.6518 29.6167C38.7502 33.7502 40.1281 37.5885 42.4901 40.541ZM99.6705 12C95.537 12 91.7971 13.3778 88.8446 15.8383C85.8921 13.3778 82.0538 12 78.0187 12C73.8852 12 70.1453 13.3778 67.1928 15.8383C64.2403 13.4763 60.402 12 56.3669 12C52.2334 12 48.4935 13.3778 45.541 15.8383C42.3917 13.3778 38.6518 12 34.5183 12C24.8734 12 17 19.8734 17 29.6167C17 39.36 24.8734 47.2334 34.5183 47.2334C38.6518 47.2334 42.3917 45.8555 45.3442 43.3951C48.2967 45.7571 52.135 47.2334 56.1701 47.2334C60.3036 47.2334 64.0435 45.8555 66.996 43.3951C69.9485 45.7571 73.7868 47.2334 77.8219 47.2334C81.9554 47.2334 85.6953 45.8555 88.6478 43.3951C91.6003 45.7571 95.4386 47.2334 99.4737 47.2334C109.119 47.2334 116.992 39.36 116.992 29.6167C117.287 19.8734 109.414 12 99.6705 12Z" fill="white"/>
</svg>
