<svg width="134" height="25" viewBox="0 0 134 25" fill="none" xmlns="http://www.w3.org/2000/svg">
<path d="M0.431 18.6935V24.856H1.298V22.4165H2.3605C3.865 22.4165 4.919 22.085 4.919 20.555C4.919 19.0335 3.865 18.6935 2.3605 18.6935H0.431ZM2.4285 19.4245C3.3295 19.4245 4.035 19.552 4.035 20.555C4.035 21.5665 3.3295 21.66 2.4285 21.66H1.298V19.4245H2.4285Z" fill="#333333"/>
<path d="M8.30698 22.8075C8.30698 24.023 7.61848 24.3545 6.89598 24.3545C6.34348 24.3545 6.01198 24.0655 6.01198 23.632C6.01198 22.986 6.90448 22.799 8.30698 22.6545V22.8075ZM6.72598 24.9665C7.53348 24.9665 8.00948 24.6605 8.28998 24.1845C8.29848 24.4565 8.32398 24.686 8.34948 24.856H9.13148C9.04648 24.4225 9.00398 23.8955 9.01248 23.1305L9.02098 22.0595C9.02948 20.7505 8.45998 20.1895 7.19348 20.1895C6.24148 20.1895 5.35748 20.742 5.28098 21.728H6.07998C6.11398 21.167 6.47948 20.8185 7.18498 20.8185C7.77998 20.8185 8.24748 21.0565 8.24748 21.915V22.0425C6.36898 22.255 5.15348 22.5695 5.15348 23.666C5.15348 24.4905 5.86748 24.9665 6.72598 24.9665Z" fill="#333333"/>
<path d="M12.443 20.266C12.358 20.2575 12.29 20.2575 12.2135 20.2575C11.6185 20.2745 11.151 20.5635 10.9215 21.082V20.283H10.165V24.856H10.9385V22.459C10.9385 21.456 11.2955 21.0565 12.0095 21.0565C12.137 21.0565 12.2815 21.0735 12.443 21.0905V20.266Z" fill="#333333"/>
<path d="M13.4075 20.283H12.685V20.9035H13.4075V23.7085C13.4075 24.6605 13.6115 24.856 14.487 24.856H15.048V24.21H14.657C14.215 24.21 14.181 24.091 14.181 23.615V20.9035H15.048V20.283H14.181V19.1355H13.4075V20.283Z" fill="#333333"/>
<path d="M18.4948 22.5865C18.4948 21.337 19.1068 20.8865 19.8378 20.8865C20.5688 20.8865 21.1808 21.371 21.1808 22.5865C21.1808 23.7595 20.5688 24.2865 19.8378 24.2865C19.1068 24.2865 18.4948 23.802 18.4948 22.5865ZM17.6703 22.5865C17.6703 24.244 18.7413 24.9665 19.8378 24.9665C20.9343 24.9665 22.0053 24.244 22.0053 22.5865C22.0053 20.929 20.9343 20.2065 19.8378 20.2065C18.7413 20.2065 17.6703 20.929 17.6703 22.5865Z" fill="#333333"/>
<path d="M23.1271 20.283H22.4896V20.9035H23.1271V24.856H23.9006V20.9035H24.7591V20.283H23.9006V19.909C23.9006 19.433 23.9686 19.3395 24.3766 19.3395H24.7591V18.6935H24.3596C23.3226 18.6935 23.1271 18.9995 23.1271 19.9515V20.283Z" fill="#333333"/>
<path d="M26.9017 24.856H28.1427L28.5762 23.6065H30.9732L31.4067 24.856H32.7242L30.4207 18.6935H29.1967L26.9017 24.856ZM29.7747 20.181L30.6247 22.612H28.9247L29.7747 20.181Z" fill="#333333"/>
<path d="M35.095 20.181C33.701 20.181 32.8255 21.184 32.8255 22.578C32.8255 23.955 33.65 24.9665 35.044 24.9665C36.013 24.9665 36.914 24.55 37.186 23.3005H36.064C35.911 23.853 35.5285 24.057 35.1035 24.057C34.432 24.057 34.024 23.5215 34.024 22.561C34.024 21.609 34.4575 21.0905 35.095 21.0905C35.5625 21.0905 35.9365 21.4135 36.0215 21.847H37.1435C36.9905 20.708 36.0725 20.181 35.095 20.181Z" fill="#333333"/>
<path d="M39.8928 20.181C38.4988 20.181 37.6233 21.184 37.6233 22.578C37.6233 23.955 38.4478 24.9665 39.8418 24.9665C40.8108 24.9665 41.7118 24.55 41.9838 23.3005H40.8618C40.7088 23.853 40.3263 24.057 39.9013 24.057C39.2298 24.057 38.8218 23.5215 38.8218 22.561C38.8218 21.609 39.2553 21.0905 39.8928 21.0905C40.3603 21.0905 40.7343 21.4135 40.8193 21.847H41.9413C41.7883 20.708 40.8703 20.181 39.8928 20.181Z" fill="#333333"/>
<path d="M44.7247 24.9665C45.9912 24.9665 46.6117 24.21 46.8582 23.53H45.6512C45.4132 23.9295 45.0987 24.057 44.7162 24.057C44.0617 24.057 43.6112 23.5725 43.5942 22.8925H46.9092C46.9602 21.2775 46.1272 20.181 44.6907 20.181C43.3137 20.181 42.4212 21.1925 42.4212 22.5525C42.4212 23.87 43.2287 24.9665 44.7247 24.9665ZM44.6652 21.0395C45.1837 21.0395 45.6937 21.3115 45.7192 22.085H43.6027C43.6707 21.388 44.1892 21.0395 44.6652 21.0395Z" fill="#333333"/>
<path d="M48.839 20.283H47.666V24.856H48.839V22.476C48.839 21.7535 49.009 21.1245 49.7825 21.1245C50.4455 21.1245 50.573 21.6345 50.573 22.2295V24.856H51.746V21.9745C51.746 20.8525 51.2615 20.181 50.165 20.181C49.604 20.181 49.1025 20.4275 48.839 20.8865V20.283Z" fill="#333333"/>
<path d="M52.8909 20.283H52.2449V21.0905H52.8909V23.6235C52.8909 24.533 53.0949 24.856 54.1404 24.856H54.9989V24.0145H54.6419C54.2254 24.0145 54.0639 23.921 54.0639 23.4535V21.0905H55.0159V20.283H54.0639V19.042H52.8909V20.283Z" fill="#333333"/>
<path d="M58.581 24.856H59.754V20.283H58.581V22.663C58.581 23.3855 58.4025 24.023 57.629 24.023C56.966 24.023 56.881 23.53 56.881 22.918V20.283H55.708V23.173C55.708 24.295 56.15 24.9665 57.2465 24.9665C57.8075 24.9665 58.3175 24.7115 58.581 24.2525V24.856Z" fill="#333333"/>
<path d="M63.4241 20.3085C63.3476 20.3 63.2456 20.2915 63.1691 20.2915C62.6421 20.2915 62.2256 20.521 61.9621 21.082V20.283H60.8061V24.856H61.9791V22.459C61.9791 21.6005 62.3616 21.388 62.9396 21.388C63.1096 21.388 63.2541 21.3965 63.4241 21.4135V20.3085Z" fill="#333333"/>
<path d="M66.0328 24.9665C67.2993 24.9665 67.9198 24.21 68.1663 23.53H66.9593C66.7213 23.9295 66.4068 24.057 66.0243 24.057C65.3698 24.057 64.9193 23.5725 64.9023 22.8925H68.2173C68.2683 21.2775 67.4353 20.181 65.9988 20.181C64.6218 20.181 63.7293 21.1925 63.7293 22.5525C63.7293 23.87 64.5368 24.9665 66.0328 24.9665ZM65.9733 21.0395C66.4918 21.0395 67.0018 21.3115 67.0273 22.085H64.9108C64.9788 21.388 65.4973 21.0395 65.9733 21.0395Z" fill="#333333"/>
<path d="M70.9765 20.283V24.856H71.7501V20.283H70.9765ZM70.9765 18.6935V19.6285H71.7501V18.6935H70.9765Z" fill="#333333"/>
<path d="M73.7505 20.283H72.977V24.856H73.7505V22.374C73.7505 21.3965 74.2095 20.878 74.9575 20.878C75.8415 20.878 75.9605 21.49 75.9605 22.1955V24.856H76.734V21.966C76.734 20.9205 76.3345 20.2065 75.2295 20.2065C74.456 20.2065 74.014 20.538 73.7505 20.9715V20.283Z" fill="#333333"/>
<path d="M78.1121 20.283H77.3896V20.9035H78.1121V23.7085C78.1121 24.6605 78.3161 24.856 79.1916 24.856H79.7526V24.21H79.3616C78.9196 24.21 78.8856 24.091 78.8856 23.615V20.9035H79.7526V20.283H78.8856V19.1355H78.1121V20.283Z" fill="#333333"/>
<path d="M82.5593 24.9665C83.6898 24.9665 84.3698 24.3205 84.5823 23.53H83.7833C83.5878 23.9805 83.2563 24.2865 82.5423 24.2865C81.7943 24.2865 81.1823 23.734 81.1823 22.8245H84.6418C84.7438 21.3795 83.9448 20.2065 82.5338 20.2065C81.2673 20.2065 80.3408 21.133 80.3408 22.578C80.3408 23.9295 81.0973 24.9665 82.5593 24.9665ZM82.5338 20.8695C83.3668 20.8695 83.8088 21.5155 83.8258 22.1615H81.1908C81.2248 21.337 81.7518 20.8695 82.5338 20.8695Z" fill="#333333"/>
<path d="M87.8307 20.266C87.7457 20.2575 87.6777 20.2575 87.6012 20.2575C87.0062 20.2745 86.5387 20.5635 86.3092 21.082V20.283H85.5527V24.856H86.3262V22.459C86.3262 21.456 86.6832 21.0565 87.3972 21.0565C87.5247 21.0565 87.6692 21.0735 87.8307 21.0905V20.266Z" fill="#333333"/>
<path d="M91.2982 22.8075C91.2982 24.023 90.6097 24.3545 89.8872 24.3545C89.3347 24.3545 89.0032 24.0655 89.0032 23.632C89.0032 22.986 89.8957 22.799 91.2982 22.6545V22.8075ZM89.7172 24.9665C90.5247 24.9665 91.0007 24.6605 91.2812 24.1845C91.2897 24.4565 91.3152 24.686 91.3407 24.856H92.1227C92.0377 24.4225 91.9952 23.8955 92.0037 23.1305L92.0122 22.0595C92.0207 20.7505 91.4512 20.1895 90.1847 20.1895C89.2327 20.1895 88.3487 20.742 88.2722 21.728H89.0712C89.1052 21.167 89.4707 20.8185 90.1762 20.8185C90.7712 20.8185 91.2387 21.0565 91.2387 21.915V22.0425C89.3602 22.255 88.1447 22.5695 88.1447 23.666C88.1447 24.4905 88.8587 24.9665 89.7172 24.9665Z" fill="#333333"/>
<path d="M95.0262 20.2065C93.6492 20.2065 92.8417 21.218 92.8417 22.578C92.8417 23.972 93.6152 24.9665 94.9497 24.9665C96.0377 24.9665 96.8112 24.227 96.9642 23.3685H96.1652C96.0547 23.853 95.6467 24.2865 94.9752 24.2865C94.2697 24.2865 93.6832 23.734 93.6832 22.5695C93.6832 21.422 94.2612 20.8865 94.9752 20.8865C95.5957 20.8865 96.0207 21.269 96.1312 21.813H96.9132C96.8112 21.0395 96.1567 20.2065 95.0262 20.2065Z" fill="#333333"/>
<path d="M98.0589 20.283H97.3364V20.9035H98.0589V23.7085C98.0589 24.6605 98.2629 24.856 99.1384 24.856H99.6994V24.21H99.3084C98.8664 24.21 98.8324 24.091 98.8324 23.615V20.9035H99.6994V20.283H98.8324V19.1355H98.0589V20.283Z" fill="#333333"/>
<path d="M100.602 20.283V24.856H101.376V20.283H100.602ZM100.602 18.6935V19.6285H101.376V18.6935H100.602Z" fill="#333333"/>
<path d="M102.849 20.283H101.991L103.716 24.856H104.405L106.13 20.283H105.331L104.09 23.785L102.849 20.283Z" fill="#333333"/>
<path d="M108.607 24.9665C109.738 24.9665 110.418 24.3205 110.63 23.53H109.831C109.636 23.9805 109.304 24.2865 108.59 24.2865C107.842 24.2865 107.23 23.734 107.23 22.8245H110.69C110.792 21.3795 109.993 20.2065 108.582 20.2065C107.315 20.2065 106.389 21.133 106.389 22.578C106.389 23.9295 107.145 24.9665 108.607 24.9665ZM108.582 20.8695C109.415 20.8695 109.857 21.5155 109.874 22.1615H107.239C107.273 21.337 107.8 20.8695 108.582 20.8695Z" fill="#333333"/>
<path d="M3.9 8.244C4.824 8.412 5.508 8.688 5.508 9.432C5.508 10.368 4.536 10.644 3.768 10.644C2.736 10.644 1.848 10.26 1.656 8.988H0C0.156 10.86 1.572 12.012 3.708 12.012C5.46 12.012 7.236 11.136 7.236 9.348C7.236 7.548 5.676 6.984 4.26 6.732L3.12 6.528C2.424 6.396 1.908 6.06 1.908 5.448C1.908 4.668 2.796 4.368 3.588 4.368C4.404 4.368 5.292 4.704 5.424 5.724H7.08C6.996 4.056 5.46 3 3.66 3C2.052 3 0.192 3.768 0.192 5.52C0.192 7.032 1.38 7.764 2.796 8.04L3.9 8.244Z" fill="#333333"/>
<path d="M11.8124 3.156H10.0964V11.856H11.8124V3.156Z" fill="#333333"/>
<path d="M22.5097 11.856V3.156H20.8897V9.792L17.4097 3.156H15.1777V11.856H16.7977V5.22L20.2777 11.856H22.5097Z" fill="#333333"/>
<path d="M33.2042 11.856V3.156H31.5842V9.792L28.1042 3.156H25.8722V11.856H27.4922V5.22L30.9722 11.856H33.2042Z" fill="#333333"/>
<path d="M36.5667 11.856H42.9027V10.464H38.2827V8.1H42.6507V6.708H38.2827V4.548H42.9027V3.156H36.5667V11.856Z" fill="#333333"/>
<path d="M51.041 11.856H52.949L51.017 8.088C52.097 7.632 52.589 6.792 52.589 5.796C52.589 3.972 51.497 3.156 48.629 3.156H45.773V11.856H47.489V8.448H49.313L51.041 11.856ZM48.821 4.5C49.985 4.5 50.825 4.8 50.825 5.808C50.825 6.66 50.237 7.116 48.905 7.116H47.489V4.5H48.821Z" fill="#333333"/>
<path d="M59.1141 8.244C60.0381 8.412 60.7221 8.688 60.7221 9.432C60.7221 10.368 59.7501 10.644 58.9821 10.644C57.9501 10.644 57.0621 10.26 56.8701 8.988H55.2141C55.3701 10.86 56.7861 12.012 58.9221 12.012C60.6741 12.012 62.4501 11.136 62.4501 9.348C62.4501 7.548 60.8901 6.984 59.4741 6.732L58.3341 6.528C57.6381 6.396 57.1221 6.06 57.1221 5.448C57.1221 4.668 58.0101 4.368 58.8021 4.368C59.6181 4.368 60.5061 4.704 60.6381 5.724H62.2941C62.2101 4.056 60.6741 3 58.8741 3C57.2661 3 55.4061 3.768 55.4061 5.52C55.4061 7.032 56.5941 7.764 58.0101 8.04L59.1141 8.244Z" fill="#333333"/>
<path d="M71.2613 9C70.9853 10.176 70.1333 10.644 69.1013 10.644C67.8413 10.644 66.8333 9.54 66.8333 7.464C66.8333 5.448 67.8413 4.368 69.1613 4.368C70.1213 4.368 70.9373 4.764 71.2613 5.976H72.8933C72.6053 4.164 71.2133 3 69.1733 3C66.6413 3 65.0573 4.716 65.0573 7.464C65.0573 10.236 66.5453 12.012 69.1253 12.012C71.2133 12.012 72.6653 10.752 72.8933 9H71.2613Z" fill="#333333"/>
<path d="M81.3983 3.156V6.708H77.4983V3.156H75.7823V11.856H77.4983V8.1H81.3983V11.856H83.1143V3.156H81.3983Z" fill="#333333"/>
<path d="M91.7449 11.856H93.6529L91.7209 8.088C92.8009 7.632 93.2929 6.792 93.2929 5.796C93.2929 3.972 92.2009 3.156 89.3329 3.156H86.4769V11.856H88.1929V8.448H90.0169L91.7449 11.856ZM89.5249 4.5C90.6889 4.5 91.5289 4.8 91.5289 5.808C91.5289 6.66 90.9409 7.116 89.6089 7.116H88.1929V4.5H89.5249Z" fill="#333333"/>
<path d="M95.618 11.856H97.37L97.982 10.092H101.366L101.978 11.856H103.838L100.586 3.156H98.858L95.618 11.856ZM99.674 5.256L100.874 8.688H98.474L99.674 5.256Z" fill="#333333"/>
<path d="M112.053 7.5C112.053 10.116 110.505 10.512 108.921 10.512H108.129V4.5H108.921C110.505 4.5 112.053 4.896 112.053 7.5ZM106.413 3.156V11.856H108.993C111.753 11.856 113.829 10.956 113.829 7.5C113.829 4.056 111.753 3.156 108.993 3.156H106.413Z" fill="#333333"/>
<path d="M116.838 11.856H123.174V10.464H118.554V8.1H122.922V6.708H118.554V4.548H123.174V3.156H116.838V11.856Z" fill="#333333"/>
<path d="M131.312 11.856H133.22L131.288 8.088C132.368 7.632 132.86 6.792 132.86 5.796C132.86 3.972 131.768 3.156 128.9 3.156H126.044V11.856H127.76V8.448H129.584L131.312 11.856ZM129.092 4.5C130.256 4.5 131.096 4.8 131.096 5.808C131.096 6.66 130.508 7.116 129.176 7.116H127.76V4.5H129.092Z" fill="#333333"/>
</svg>
