<svg width="147" height="13" viewBox="0 0 147 13" fill="none" xmlns="http://www.w3.org/2000/svg">
<path d="M5.6 7.184C6.832 7.408 7.744 7.776 7.744 8.768C7.744 10.016 6.448 10.384 5.424 10.384C4.048 10.384 2.864 9.872 2.608 8.176H0.4C0.608 10.672 2.496 12.208 5.344 12.208C7.68 12.208 10.048 11.04 10.048 8.656C10.048 6.256 7.968 5.504 6.08 5.168L4.56 4.896C3.632 4.72 2.944 4.272 2.944 3.456C2.944 2.416 4.128 2.016 5.184 2.016C6.272 2.016 7.456 2.464 7.632 3.824H9.84C9.728 1.6 7.68 0.191999 5.28 0.191999C3.136 0.191999 0.656 1.216 0.656 3.552C0.656 5.568 2.24 6.544 4.128 6.912L5.6 7.184ZM13.7499 0.4H11.4619V12H13.7499V0.4ZM25.6129 12V0.4H23.4529V9.248L18.8129 0.4H15.8369V12H17.9969V3.152L22.6369 12H25.6129ZM37.4723 12V0.4H35.3123V9.248L30.6723 0.4H27.6963V12H29.8563V3.152L34.4963 12H37.4723ZM39.5556 12H48.0036V10.144H41.8436V6.992H47.6676V5.136H41.8436V2.256H48.0036V0.4H39.5556V12ZM56.4546 12H58.9986L56.4226 6.976C57.8626 6.368 58.5186 5.248 58.5186 3.92C58.5186 1.488 57.0626 0.4 53.2386 0.4H49.4306V12H51.7186V7.456H53.6066H54.1506L56.4546 12ZM53.4946 2.192C55.0466 2.192 56.1666 2.592 56.1666 3.936C56.1666 5.072 55.3826 5.68 53.6066 5.68H51.7186V2.192H53.4946ZM64.8188 7.184C66.0508 7.408 66.9628 7.776 66.9628 8.768C66.9628 10.016 65.6668 10.384 64.6428 10.384C63.2668 10.384 62.0828 9.872 61.8268 8.176H59.6188C59.8268 10.672 61.7148 12.208 64.5628 12.208C66.8988 12.208 69.2668 11.04 69.2668 8.656C69.2668 6.256 67.1868 5.504 65.2988 5.168L63.7788 4.896C62.8508 4.72 62.1628 4.272 62.1628 3.456C62.1628 2.416 63.3468 2.016 64.4028 2.016C65.4908 2.016 66.6748 2.464 66.8508 3.824H69.0588C68.9468 1.6 66.8988 0.191999 64.4988 0.191999C62.3548 0.191999 59.8748 1.216 59.8748 3.552C59.8748 5.568 61.4588 6.544 63.3468 6.912L64.8188 7.184ZM78.6151 8.192C78.2471 9.76 77.1111 10.384 75.7351 10.384C74.0551 10.384 72.7111 8.912 72.7111 6.144C72.7111 3.456 74.0551 2.016 75.8151 2.016C77.0951 2.016 78.1831 2.544 78.6151 4.16H80.7911C80.4071 1.744 78.5511 0.191999 75.8311 0.191999C72.4551 0.191999 70.3431 2.48 70.3431 6.144C70.3431 9.84 72.3271 12.208 75.7671 12.208C78.5511 12.208 80.4871 10.528 80.7911 8.192H78.6151ZM89.7311 0.4V5.136H84.5311V0.4H82.2431V12H84.5311V6.992H89.7311V12H92.0191V0.4H89.7311ZM101.127 12H103.671L101.095 6.976C102.535 6.368 103.191 5.248 103.191 3.92C103.191 1.488 101.735 0.4 97.9105 0.4H94.1025V12H96.3905V7.456H98.2785H98.8225L101.127 12ZM98.1665 2.192C99.7185 2.192 100.839 2.592 100.839 3.936C100.839 5.072 100.055 5.68 98.2785 5.68H96.3905V2.192H98.1665ZM103.891 12H106.227L107.043 9.648H111.555L112.371 12H114.851L110.515 0.4H108.211L103.891 12ZM109.299 3.2L110.899 7.776H107.699L109.299 3.2ZM123.404 6.192C123.404 9.68 121.34 10.208 119.228 10.208H118.172V2.192H119.228C121.34 2.192 123.404 2.72 123.404 6.192ZM115.884 0.4V12H119.324C123.004 12 125.772 10.8 125.772 6.192C125.772 1.6 123.004 0.4 119.324 0.4H115.884ZM127.384 12H135.832V10.144H129.672V6.992H135.496V5.136H129.672V2.256H135.832V0.4H127.384V12ZM144.283 12H146.827L144.251 6.976C145.691 6.368 146.347 5.248 146.347 3.92C146.347 1.488 144.891 0.4 141.067 0.4H137.259V12H139.547V7.456H141.435H141.979L144.283 12ZM141.323 2.192C142.875 2.192 143.995 2.592 143.995 3.936C143.995 5.072 143.211 5.68 141.435 5.68H139.547V2.192H141.323Z" fill="white"/>
</svg>
