<svg width="134" height="60" viewBox="0 0 134 60" fill="none" xmlns="http://www.w3.org/2000/svg">
<path d="M67 53.608C54.052 53.608 43.444 42.948 43.444 30C43.444 27.088 43.964 24.332 44.952 21.732L58.732 49.448C58.888 49.812 59.148 50.124 59.564 50.124C59.98 50.124 60.24 49.812 60.396 49.448L66.74 35.252C66.792 35.096 66.896 34.94 67.052 34.94C67.208 34.94 67.26 35.096 67.364 35.252L73.708 49.448C73.864 49.812 74.124 50.124 74.54 50.124C74.956 50.124 75.216 49.812 75.372 49.448L89.152 21.732C90.14 24.332 90.66 27.088 90.66 30C90.556 42.948 79.948 53.608 67 53.608ZM67 24.644C66.844 24.644 66.792 24.488 66.688 24.332L59.304 7.692C61.696 6.808 64.296 6.34 67 6.34C69.704 6.34 72.304 6.808 74.696 7.692L67.312 24.332C67.208 24.54 67.156 24.644 67 24.644ZM59.46 41.752C59.304 41.752 59.252 41.596 59.148 41.44L47.188 17.312C49.32 14.036 52.18 11.28 55.664 9.356L64.296 28.544C64.4 28.856 64.66 28.96 64.92 28.96H69.08C69.392 28.96 69.6 28.908 69.756 28.544L78.388 9.356C81.82 11.28 84.732 14.036 86.864 17.312L74.8 41.44C74.748 41.596 74.644 41.752 74.488 41.752C74.332 41.752 74.28 41.596 74.176 41.44L69.652 31.144C69.496 30.78 69.288 30.728 68.976 30.728H64.816C64.504 30.728 64.296 30.78 64.14 31.144L59.772 41.44C59.72 41.596 59.616 41.752 59.46 41.752ZM67 56C81.404 56 93 44.404 93 30C93 15.596 81.404 4 67 4C52.596 4 41 15.596 41 30C41 44.404 52.596 56 67 56Z" fill="white"/>
</svg>
