<svg width="187" height="12" viewBox="0 0 187 12" fill="none" xmlns="http://www.w3.org/2000/svg">
<path d="M0.88969 2.52586V11.3363H2.01416V8.17293C2.42193 8.87726 3.12627 9.33447 4.18896 9.33447C5.75827 9.33447 6.99395 8.07407 6.99395 5.87456C6.99395 3.68741 5.75827 2.41465 4.18896 2.41465C3.12627 2.41465 2.42193 2.87186 2.01416 3.57619V2.52586H0.88969ZM1.96473 5.87456C1.96473 4.11989 2.90385 3.37849 3.90475 3.37849C5.10336 3.37849 5.77063 4.29289 5.77063 5.87456C5.77063 7.45623 5.10336 8.37064 3.90475 8.37064C2.90385 8.37064 1.96473 7.62923 1.96473 5.87456ZM13.395 6.19584C13.395 7.96286 12.3941 8.44478 11.3437 8.44478C10.5405 8.44478 10.0586 8.02464 10.0586 7.39445C10.0586 6.45533 11.3561 6.18348 13.395 5.97341V6.19584ZM11.0966 9.33447C12.2705 9.33447 12.9625 8.88962 13.3702 8.19764C13.3826 8.59306 13.4197 8.92669 13.4567 9.17383H14.5936C14.47 8.54363 14.4082 7.77751 14.4206 6.6654L14.4329 5.10844C14.4453 3.20549 13.6174 2.38994 11.7762 2.38994C10.3923 2.38994 9.10715 3.19313 8.99594 4.62652H10.1575C10.2069 3.81097 10.7382 3.30434 11.7639 3.30434C12.6288 3.30434 13.3085 3.65033 13.3085 4.89837V5.08372C10.5776 5.39264 8.81058 5.84985 8.81058 7.44388C8.81058 8.64249 9.84856 9.33447 11.0966 9.33447ZM20.2903 2.50115C20.1668 2.4888 20.0679 2.4888 19.9567 2.4888C19.0917 2.51351 18.4121 2.93364 18.0785 3.68741V2.52586H16.9787V9.17383H18.1032V5.68921C18.1032 4.2311 18.6222 3.65033 19.6601 3.65033C19.8455 3.65033 20.0556 3.67505 20.2903 3.69976V2.50115ZM22.5751 2.52586H21.5247V3.42791H22.5751V7.50566C22.5751 8.88962 22.8716 9.17383 24.1444 9.17383H24.9599V8.23471H24.3915C23.749 8.23471 23.6995 8.06172 23.6995 7.36973V3.42791H24.9599V2.52586H23.6995V0.857696H22.5751V2.52586ZM31.7359 5.87456C31.7359 4.05811 32.6256 3.4032 33.6883 3.4032C34.7509 3.4032 35.6406 4.10754 35.6406 5.87456C35.6406 7.5798 34.7509 8.34592 33.6883 8.34592C32.6256 8.34592 31.7359 7.64158 31.7359 5.87456ZM30.5373 5.87456C30.5373 8.28414 32.0942 9.33447 33.6883 9.33447C35.2823 9.33447 36.8392 8.28414 36.8392 5.87456C36.8392 3.46498 35.2823 2.41465 33.6883 2.41465C32.0942 2.41465 30.5373 3.46498 30.5373 5.87456ZM39.3528 2.52586H38.426V3.42791H39.3528V9.17383H40.4772V3.42791H41.7253V2.52586H40.4772V1.98217C40.4772 1.29018 40.5761 1.15426 41.1692 1.15426H41.7253V0.215142H41.1445C39.637 0.215142 39.3528 0.659987 39.3528 2.04395V2.52586ZM46.75 9.17383H48.5541L49.1843 7.35738H52.6689L53.2991 9.17383H55.2145L51.8658 0.215142H50.0864L46.75 9.17383ZM50.9266 2.37758L52.1623 5.91163H49.691L50.9266 2.37758ZM59.5437 2.37758C57.5171 2.37758 56.2444 3.83569 56.2444 5.8622C56.2444 7.86401 57.443 9.33447 59.4695 9.33447C60.8782 9.33447 62.188 8.72898 62.5834 6.91253H60.9523C60.7299 7.71572 60.1739 8.01229 59.556 8.01229C58.5798 8.01229 57.9867 7.23381 57.9867 5.83749C57.9867 4.45353 58.6169 3.69976 59.5437 3.69976C60.2233 3.69976 60.767 4.16932 60.8906 4.79952H62.5217C62.2992 3.14371 60.9647 2.37758 59.5437 2.37758ZM67.4011 2.37758C65.3746 2.37758 64.1019 3.83569 64.1019 5.8622C64.1019 7.86401 65.3005 9.33447 67.327 9.33447C68.7357 9.33447 70.0455 8.72898 70.4409 6.91253H68.8098C68.5874 7.71572 68.0313 8.01229 67.4135 8.01229C66.4373 8.01229 65.8442 7.23381 65.8442 5.83749C65.8442 4.45353 66.4744 3.69976 67.4011 3.69976C68.0808 3.69976 68.6245 4.16932 68.748 4.79952H70.3791C70.1567 3.14371 68.8222 2.37758 67.4011 2.37758ZM75.308 9.33447C77.1492 9.33447 78.0512 8.23471 78.4096 7.24617H76.6549C76.3089 7.82694 75.8517 8.01229 75.2957 8.01229C74.3442 8.01229 73.6893 7.30795 73.6646 6.31941H78.4837C78.5579 3.97161 77.3469 2.37758 75.2586 2.37758C73.2568 2.37758 71.9593 3.84804 71.9593 5.82513C71.9593 7.74044 73.1332 9.33447 75.308 9.33447ZM75.2215 3.62562C75.9753 3.62562 76.7167 4.02104 76.7538 5.14551H73.6769C73.7758 4.13225 74.5296 3.62562 75.2215 3.62562ZM82.1717 2.52586H80.4665V9.17383H82.1717V5.71392C82.1717 4.66359 82.4189 3.74919 83.5433 3.74919C84.5072 3.74919 84.6925 4.4906 84.6925 5.35557V9.17383H86.3978V4.98487C86.3978 3.35377 85.6934 2.37758 84.0994 2.37758C83.2839 2.37758 82.5548 2.73593 82.1717 3.4032V2.52586ZM88.9449 2.52586H88.0058V3.69976H88.9449V7.38209C88.9449 8.70427 89.2415 9.17383 90.7613 9.17383H92.0094V7.9505H91.4904C90.8849 7.9505 90.6501 7.81458 90.6501 7.13495V3.69976H92.0341V2.52586H90.6501V0.721771H88.9449V2.52586ZM98.0994 9.17383H99.8047V2.52586H98.0994V5.98577C98.0994 7.0361 97.84 7.96286 96.7155 7.96286C95.7516 7.96286 95.6281 7.24617 95.6281 6.35648V2.52586H93.9228V6.72718C93.9228 8.35828 94.5654 9.33447 96.1594 9.33447C96.975 9.33447 97.7164 8.96376 98.0994 8.29649V9.17383ZM106.023 2.56294C105.911 2.55058 105.763 2.53822 105.652 2.53822C104.886 2.53822 104.28 2.87186 103.897 3.68741V2.52586H102.217V9.17383H103.922V5.68921C103.922 4.44117 104.478 4.13225 105.318 4.13225C105.565 4.13225 105.776 4.14461 106.023 4.16932V2.56294ZM110.698 9.33447C112.539 9.33447 113.441 8.23471 113.799 7.24617H112.045C111.699 7.82694 111.241 8.01229 110.685 8.01229C109.734 8.01229 109.079 7.30795 109.054 6.31941H113.873C113.948 3.97161 112.737 2.37758 110.648 2.37758C108.646 2.37758 107.349 3.84804 107.349 5.82513C107.349 7.74044 108.523 9.33447 110.698 9.33447ZM110.611 3.62562C111.365 3.62562 112.106 4.02104 112.143 5.14551H109.067C109.165 4.13225 109.919 3.62562 110.611 3.62562ZM121.228 0.215142H119.968V9.17383H121.228V0.215142ZM125.193 2.52586H124.068V9.17383H125.193V5.56564C125.193 4.14461 125.86 3.39084 126.947 3.39084C128.232 3.39084 128.405 4.28053 128.405 5.30615V9.17383H129.53V4.97251C129.53 3.45263 128.949 2.41465 127.343 2.41465C126.218 2.41465 125.576 2.89657 125.193 3.52677V2.52586ZM132.416 2.52586H131.366V3.42791H132.416V7.50566C132.416 8.88962 132.712 9.17383 133.985 9.17383H134.801V8.23471H134.232C133.59 8.23471 133.54 8.06172 133.54 7.36973V3.42791H134.801V2.52586H133.54V0.857696H132.416V2.52586ZM139.764 9.33447C141.407 9.33447 142.396 8.39535 142.704 7.24617H141.543C141.259 7.90108 140.777 8.34592 139.739 8.34592C138.651 8.34592 137.762 7.54273 137.762 6.22055H142.791C142.939 4.11989 141.778 2.41465 139.726 2.41465C137.885 2.41465 136.538 3.76155 136.538 5.8622C136.538 7.82694 137.638 9.33447 139.764 9.33447ZM139.726 3.37849C140.937 3.37849 141.58 4.3176 141.605 5.25672H137.774C137.823 4.05811 138.59 3.37849 139.726 3.37849ZM148.309 2.50115C148.186 2.4888 148.087 2.4888 147.976 2.4888C147.111 2.51351 146.431 2.93364 146.098 3.68741V2.52586H144.998V9.17383H146.122V5.68921C146.122 4.2311 146.641 3.65033 147.679 3.65033C147.865 3.65033 148.075 3.67505 148.309 3.69976V2.50115ZM154.233 6.19584C154.233 7.96286 153.232 8.44478 152.182 8.44478C151.378 8.44478 150.897 8.02464 150.897 7.39445C150.897 6.45533 152.194 6.18348 154.233 5.97341V6.19584ZM151.935 9.33447C153.108 9.33447 153.8 8.88962 154.208 8.19764C154.221 8.59306 154.258 8.92669 154.295 9.17383H155.432C155.308 8.54363 155.246 7.77751 155.259 6.6654L155.271 5.10844C155.283 3.20549 154.455 2.38994 152.614 2.38994C151.23 2.38994 149.945 3.19313 149.834 4.62652H150.995C151.045 3.81097 151.576 3.30434 152.602 3.30434C153.467 3.30434 154.146 3.65033 154.146 4.89837V5.08372C151.416 5.39264 149.649 5.84985 149.649 7.44388C149.649 8.64249 150.687 9.33447 151.935 9.33447ZM160.535 2.41465C158.533 2.41465 157.359 3.88511 157.359 5.8622C157.359 7.88872 158.484 9.33447 160.424 9.33447C162.006 9.33447 163.13 8.25942 163.353 7.01139H162.191C162.03 7.71572 161.437 8.34592 160.461 8.34592C159.435 8.34592 158.583 7.54273 158.583 5.84985C158.583 4.18168 159.423 3.4032 160.461 3.4032C161.363 3.4032 161.981 3.95926 162.142 4.75009H163.278C163.13 3.62562 162.179 2.41465 160.535 2.41465ZM165.826 2.52586H164.776V3.42791H165.826V7.50566C165.826 8.88962 166.123 9.17383 167.396 9.17383H168.211V8.23471H167.643C167 8.23471 166.951 8.06172 166.951 7.36973V3.42791H168.211V2.52586H166.951V0.857696H165.826V2.52586ZM170.406 2.52586V9.17383H171.531V2.52586H170.406ZM170.406 0.215142V1.57439H171.531V0.215142H170.406ZM174.555 2.52586H173.307L175.816 9.17383H176.817L179.325 2.52586H178.164L176.359 7.61687L174.555 2.52586ZM183.809 9.33447C185.452 9.33447 186.441 8.39535 186.75 7.24617H185.588C185.304 7.90108 184.822 8.34592 183.784 8.34592C182.697 8.34592 181.807 7.54273 181.807 6.22055H186.836C186.984 4.11989 185.823 2.41465 183.772 2.41465C181.931 2.41465 180.584 3.76155 180.584 5.8622C180.584 7.82694 181.683 9.33447 183.809 9.33447ZM183.772 3.37849C184.983 3.37849 185.625 4.3176 185.65 5.25672H181.819C181.869 4.05811 182.635 3.37849 183.772 3.37849Z" fill="white"/>
</svg>
