<svg width="134" height="60" viewBox="0 0 134 60" fill="none" xmlns="http://www.w3.org/2000/svg">
<path d="M57.3136 29.4312C57.3136 29.4312 60.0369 28.5081 60.0369 25.4312C60.0369 21.8311 57.4683 20.0465 53.9404 20.0465H44.6873V39.616H54.745C57.8397 39.616 60.8724 37.4621 60.8724 34.1697C60.8724 30.262 57.3136 29.462 57.3136 29.4312ZM49.515 24.1081H53.1048C54.2189 24.1081 54.9616 24.8466 54.9616 25.9543C54.9616 26.8158 54.2808 27.7389 53.012 27.7389H49.484V24.1081H49.515ZM53.1357 35.5236H49.5459V31.6774H53.0429C54.8069 31.6774 55.6424 32.4466 55.6424 33.5851C55.6424 35.0005 54.5902 35.5236 53.1357 35.5236Z" fill="white"/>
<path d="M71.5184 19.5543C65.8242 19.5543 62.4819 24.0774 62.4819 29.8005C62.4819 35.5544 65.8242 40.0468 71.5184 40.0468C77.2436 40.0468 80.5549 35.5544 80.5549 29.8005C80.5549 24.0774 77.2436 19.5543 71.5184 19.5543ZM71.5184 35.3698C68.7332 35.3698 67.3406 32.8775 67.3406 29.8005C67.3406 26.7236 68.7332 24.262 71.5184 24.262C74.3036 24.262 75.7272 26.7543 75.7272 29.8005C75.7272 32.8775 74.3036 35.3698 71.5184 35.3698Z" fill="white"/>
<path d="M91.0454 27.708L90.3646 27.5541C88.6935 27.2157 87.3627 26.7849 87.3627 25.5849C87.3627 24.2925 88.6316 23.7695 89.7457 23.7695C91.3858 23.7695 92.8403 24.5695 93.7687 25.5849L96.8325 22.5695C95.4399 21.0002 93.1808 19.4925 89.6528 19.4925C85.5059 19.4925 82.3803 21.8002 82.3803 25.6464C82.3803 29.1541 84.9179 30.8772 88.0126 31.5234L88.6935 31.6772C91.262 32.2003 92.2214 32.6003 92.2214 33.8311C92.2214 35.0004 91.1692 35.7696 89.56 35.7696C87.6413 35.7696 85.9082 34.9388 84.5775 33.2465L81.4519 36.3235C83.1849 38.385 85.3822 39.985 89.6219 39.985C93.3045 39.985 97.2348 37.8927 97.2348 33.6157C97.2657 29.1541 93.8616 28.2926 91.0454 27.708Z" fill="white"/>
<path d="M108.221 35.3696C106.055 35.3696 103.796 33.585 103.796 29.6773C103.796 26.2003 105.9 24.2618 108.097 24.2618C109.83 24.2618 110.852 25.0618 111.656 26.4465L115.617 23.831C113.637 20.8464 111.285 19.5848 108.036 19.5848C102.094 19.5848 98.8752 24.1695 98.8752 29.708C98.8752 35.5235 102.434 40.0774 107.974 40.0774C111.873 40.0774 113.73 38.7235 115.741 35.8312L111.749 33.1542C110.945 34.4465 110.078 35.3696 108.221 35.3696Z" fill="white"/>
<path d="M128.832 20.0157V27.2158H122.859V20.0157H117.691V39.5851H122.859V31.862H128.832V39.5851H134V20.0157H128.832Z" fill="white"/>
<path d="M14.9164 15C6.68451 15 0 21.6462 0 29.831C0 38.0157 6.68451 44.6619 14.9164 44.6619C23.1482 44.6619 29.8327 38.0157 29.8327 29.831C29.8327 21.6462 23.1482 15 14.9164 15ZM14.9164 43.2773C7.45818 43.2773 1.39261 37.2464 1.39261 29.831C1.39261 22.4155 7.45818 16.3846 14.9164 16.3846C22.3746 16.3846 28.4401 22.4155 28.4401 29.831C28.4401 37.2464 22.3746 43.2773 14.9164 43.2773Z" fill="white"/>
<path d="M21.0746 20.5695H20.0534V25.6464H9.80996V20.5695H8.75777C5.75593 22.5695 3.74438 25.9541 3.74438 29.8311C3.74438 33.7081 5.75593 37.0927 8.75777 39.0928H9.80996V34.0158H20.0534V39.0928H21.0746C24.1074 37.0927 26.088 33.7081 26.088 29.8311C26.088 25.9541 24.1074 22.5695 21.0746 20.5695ZM8.38641 37.0927C6.31297 35.2773 5.10605 32.6619 5.10605 29.8311C5.10605 27.0003 6.31297 24.3849 8.38641 22.5695V37.0927ZM20.0534 32.6004H9.80996V27.0311H20.0534C20.0534 27.0618 20.0534 32.6004 20.0534 32.6004ZM21.446 37.062V33.985V25.6464V22.5695C23.4885 24.3849 24.6954 27.0003 24.6954 29.8003C24.6954 32.6311 23.4885 35.2466 21.446 37.062Z" fill="white"/>
</svg>
