<svg width="294" height="297" viewBox="0 0 294 297" fill="none" xmlns="http://www.w3.org/2000/svg">
<path d="M140.763 292.81L141.299 281.655L138.437 281.518L137.902 292.673L140.763 292.81ZM140.577 296.688L140.705 294.034L137.843 293.896L137.716 296.55L140.577 296.688Z" fill="black"/>
<path d="M128.096 291.781L130.933 292.18L132.488 281.121L129.652 280.722L128.842 286.478C128.596 288.225 127.971 289.689 126.1 289.425C124.497 289.2 124.362 287.923 124.565 286.484L125.458 280.132L122.621 279.733L121.641 286.702C121.259 289.415 122.203 291.204 124.854 291.577C126.211 291.768 127.508 291.342 128.301 290.322L128.096 291.781Z" fill="black"/>
<path d="M113.968 289.282L115.502 289.652L115.964 287.735L114.431 287.365L115.881 281.351C116.402 279.192 116.102 278.308 113.62 277.71L111.582 277.218L111.1 279.216L111.948 279.42C112.937 279.659 113.267 279.973 112.999 281.083L111.646 286.693L109.386 286.148L108.923 288.065L111.183 288.61L110.473 291.557L113.258 292.228L113.968 289.282Z" fill="black"/>
<path d="M99.5606 283.08C97.9915 282.536 97.4842 281.02 98.2523 278.804C99.0135 276.607 100.35 275.73 101.919 276.274C103.488 276.818 103.996 278.334 103.234 280.53C102.466 282.747 101.13 283.624 99.5606 283.08ZM102.653 274.156C99.9072 273.204 96.7909 274.145 95.5063 277.852C94.2217 281.559 96.0805 284.247 98.8265 285.198C101.572 286.15 104.696 285.189 105.98 281.482C107.265 277.775 105.399 275.107 102.653 274.156Z" fill="black"/>
<path d="M77.0029 279.775L84.3777 266.656L81.8805 265.253L80.2327 268.184L78.3161 268.797L78.1348 263.147L75.33 261.57L75.6443 269.653L70.0565 271.417L72.8613 272.994L78.6051 271.079L74.5058 278.372L77.0029 279.775Z" fill="black"/>
<path d="M63.18 266.775L65.5043 268.449L72.0326 259.388L69.7083 257.713L66.3107 262.429C65.2793 263.861 64.0445 264.865 62.5118 263.76C61.1981 262.814 61.6735 261.621 62.5229 260.442L66.2725 255.238L63.9482 253.563L59.8347 259.273C58.2329 261.496 58.2343 263.518 60.407 265.084C61.5186 265.885 62.8642 266.112 64.0415 265.579L63.18 266.775Z" fill="black"/>
<path d="M49.7675 253.463C48.543 252.341 48.679 250.748 50.2635 249.019C51.834 247.304 53.4088 247.03 54.6333 248.151C55.8578 249.273 55.7218 250.866 54.1513 252.58C52.5668 254.31 50.992 254.584 49.7675 253.463ZM56.1477 246.498C54.0048 244.535 50.7709 244.162 48.1206 247.055C45.4704 249.948 46.1102 253.153 48.2531 255.116C50.3959 257.079 53.6439 257.436 56.2942 254.543C58.9444 251.65 58.2906 248.461 56.1477 246.498Z" fill="black"/>
<path d="M43.5287 239.029L38.5953 245.155L40.4309 247.328L47.2728 238.121L45.3701 235.87L37.5748 239.767L42.7306 232.746L40.828 230.495L30.5963 235.69L32.4319 237.862L39.2789 234.033L34.5355 240.351L36.5051 242.682L43.5287 239.029Z" fill="black"/>
<path d="M22.5787 230.801L24.1953 233.166L36.6198 224.673L35.0033 222.308L22.5787 230.801Z" fill="black"/>
<path d="M29.5814 212.91C28.0774 210.208 25.7262 209.782 23.9824 210.063L25.4157 212.639C26.5508 212.673 27.1964 213.192 27.6506 214.009C28.4278 215.405 27.9289 216.942 26.4979 217.786L22.5614 210.712C19.0544 212.521 17.7036 215.6 19.4095 218.666C21.0446 221.604 24.263 222.308 27.1653 220.693C29.9769 219.128 31.3579 216.103 29.5814 212.91ZM21.2718 217.701C20.6561 216.594 20.6309 215.183 22.2513 214.21L24.7646 218.727C23.1965 219.409 21.837 218.717 21.2718 217.701Z" fill="black"/>
<path d="M20.5451 194.055L6.61347 199.748L7.69708 202.4L12.6164 200.39C11.8833 201.34 11.743 202.698 12.277 204.004C13.3292 206.579 16.243 207.564 19.4905 206.237C22.7957 204.886 24.1321 202.12 23.0956 199.584C22.6559 198.507 21.7227 197.431 20.322 197.241L21.6287 196.707L20.5451 194.055ZM20.7917 199.763C21.3806 201.204 20.3889 202.618 18.3712 203.443C16.3535 204.267 14.6358 203.96 14.0469 202.519C13.4501 201.058 14.345 199.571 16.4203 198.723C18.5341 197.86 20.1949 198.302 20.7917 199.763Z" fill="black"/>
<path d="M14.8341 184.408C15.2465 185.909 14.0782 187.22 12.2966 187.709C10.4951 188.204 8.82097 187.674 8.40863 186.173C7.98528 184.631 9.04801 183.328 10.9296 182.811C12.8312 182.288 14.4108 182.866 14.8341 184.408ZM5.89278 184.302L7.29397 183.917C6.48512 184.656 6.1254 186.089 6.49926 187.45C7.26347 190.233 10.0112 191.459 13.0738 190.617C16.2165 189.754 17.8816 187.273 17.1283 184.531C16.8205 183.41 16.0337 182.27 14.6603 181.894L16.1015 181.498C17.7229 181.052 18.6674 181.826 19.0632 183.268C19.4096 184.529 19.1872 185.365 18.3524 185.852L19.0726 188.475C21.4958 187.422 21.7557 185.154 21.1234 182.852C20.2163 179.55 18.3508 177.931 14.8278 178.898L5.13956 181.559L5.89278 184.302Z" fill="black"/>
<path d="M14.2332 168.042C13.7687 164.984 11.7146 163.763 9.98236 163.418L10.425 166.332C11.4769 166.76 11.9 167.473 12.0403 168.396C12.2803 169.976 11.2757 171.242 9.64012 171.532L8.42443 163.528C4.50634 163.997 2.16435 166.411 2.69116 169.879C3.19614 173.204 5.96568 174.988 9.24937 174.489C12.4304 174.006 14.7818 171.654 14.2332 168.042ZM4.77333 169.626C4.58319 168.374 5.05289 167.043 6.91114 166.698L7.68731 171.808C5.97949 171.899 4.94789 170.775 4.77333 169.626Z" fill="black"/>
<path d="M6.71506 147.627C7.79422 147.651 8.63281 146.84 8.65542 145.844C8.68016 144.754 7.87901 143.916 6.79986 143.891C5.78295 143.868 4.9446 144.669 4.91987 145.759C4.89726 146.755 5.69816 147.604 6.71506 147.627Z" fill="black"/>
<path d="M3.80741 120.955L14.7613 123.131L15.1294 121.278L4.17552 119.102L3.80741 120.955ZM0 120.198L2.23965 120.643L2.60776 118.79L0.368108 118.345L0 120.198Z" fill="black"/>
<path d="M6.43945 109.515L5.90301 111.327L16.6113 114.498L17.1477 112.687L11.3358 110.966C9.04685 110.288 8.15104 108.853 8.66979 107.102C9.28285 105.032 10.7985 105.178 12.4505 105.667L18.6804 107.512L19.2168 105.701L12.4495 103.696C10.0013 102.971 8.05235 103.412 7.28602 105.999C6.74959 107.81 7.2193 109.075 8.05166 109.993L6.43945 109.515Z" fill="black"/>
<path d="M11.3421 94.8532L10.6797 96.4886L12.0842 97.0575L12.7466 95.4221L19.0958 97.9939C21.2507 98.8667 21.8803 98.5842 22.683 96.6025L23.1973 95.3326L21.7351 94.7403L21.3766 95.6254C20.9713 96.6259 20.6708 96.5937 19.5934 96.1573L13.4558 93.6713L14.2507 91.7088L12.8462 91.1399L12.0513 93.1024L9.45388 92.0503L8.7447 93.8011L11.3421 94.8532Z" fill="black"/>
<path d="M21.1643 86.4482C18.4602 85.0343 18.1777 83.2 19.0049 81.618C19.8321 80.036 21.5732 79.2597 24.2037 80.6352C26.7423 81.9625 27.1903 83.8833 26.3632 85.4654C25.536 87.0474 23.7949 87.8236 21.1643 86.4482ZM20.2313 88.2326C23.8185 90.1082 26.594 88.6079 27.8348 86.2348C29.0756 83.8618 28.7239 80.7264 25.1367 78.8508C21.5496 76.9752 18.774 78.4755 17.5332 80.8485C16.2925 83.2216 16.6442 86.357 20.2313 88.2326Z" fill="black"/>
<path d="M42.3327 63.6416L43.4989 62.1556L34.7134 55.2607L33.5472 56.7468L38.3808 60.5402C40.2588 62.014 40.6013 63.6286 39.4992 65.033C38.2304 66.6497 36.8752 65.9555 35.5199 64.8918L30.3432 60.8293L29.177 62.3153L34.7945 66.7239C36.8031 68.3002 38.7772 68.6092 40.3792 66.568C41.5197 65.1146 41.5108 63.8146 41.0753 62.6548L42.3327 63.6416Z" fill="black"/>
<path d="M40.4111 48.8788L39.1926 50.1549L40.2885 51.2014L41.5071 49.9253L46.4615 54.6561C48.143 56.2617 48.8323 56.2311 50.3089 54.6847L51.2551 53.6938L50.114 52.6043L49.4546 53.2949C48.7091 54.0756 48.4416 53.935 47.6009 53.1322L42.8116 48.5591L44.2739 47.0277L43.1779 45.9812L41.7157 47.5126L39.6889 45.5773L38.3843 46.9435L40.4111 48.8788Z" fill="black"/>
<path d="M47.8603 41.4783L55.3665 49.7475L56.7653 48.4779L49.259 40.2086L47.8603 41.4783ZM45.2512 38.604L46.786 40.2947L48.1847 39.0251L46.6499 37.3344L45.2512 38.604Z" fill="black"/>
<path d="M54.2005 30.9784L52.7207 32.1526L62.0754 43.9419L63.5552 42.7677L54.2005 30.9784Z" fill="black"/>
<path d="M62.8057 29.405L69.1526 38.5942L70.7069 37.5206L64.36 28.3314L62.8057 29.405ZM60.5996 26.2109L61.8973 28.0898L63.4516 27.0162L62.1539 25.1374L60.5996 26.2109Z" fill="black"/>
<path d="M71.3451 23.8321L69.8254 24.7287L70.5954 26.0338L72.1151 25.1372L75.5961 31.0371C76.7775 33.0395 77.4492 33.1976 79.2907 32.1111L80.4707 31.4149L79.669 30.0561L78.8466 30.5413C77.9169 31.0898 77.6977 30.8817 77.107 29.8805L73.7421 24.1773L75.5657 23.1013L74.7956 21.7962L72.972 22.8721L71.548 20.4585L69.921 21.4184L71.3451 23.8321Z" fill="black"/>
<path d="M86.2375 15.9644L87.4656 24.927L81.1817 18.3837L79.2905 19.2887L87.7439 27.6244L87.7675 27.8662C88.0708 29.6542 87.5636 29.9889 86.4401 30.5265L85.7473 30.8581L86.4283 32.2812L87.3084 31.86C89.5554 30.7848 89.766 29.8785 89.4479 27.3382L88.0163 15.1131L86.2375 15.9644Z" fill="black"/>
<path d="M105.773 14.2012C106.075 15.2377 107.101 15.7931 108.058 15.5148C109.104 15.2104 109.663 14.194 109.361 13.1575C109.077 12.1809 108.061 11.6226 107.014 11.927C106.058 12.2053 105.489 13.2246 105.773 14.2012Z" fill="black"/>
<path d="M125.229 4.52073L126.734 15.5869L129.573 15.2008L128.068 4.13469L125.229 4.52073ZM124.706 0.674316L125.064 3.30716L127.903 2.92111L127.545 0.288272L124.706 0.674316Z" fill="black"/>
<path d="M137.872 3.2237L135.01 3.34787L135.494 14.5054L138.356 14.3812L138.104 8.57434C138.027 6.81153 138.375 5.25886 140.263 5.17698C141.88 5.1068 142.245 6.33764 142.308 7.78936L142.586 14.1977L145.448 14.0735L145.143 7.04303C145.025 4.3055 143.771 2.71841 141.096 2.83447C139.727 2.89386 138.53 3.54837 137.935 4.69616L137.872 3.2237Z" fill="black"/>
<path d="M152.212 3.11084L150.637 3.02638L150.531 4.99561L152.106 5.08006L151.775 11.2572C151.656 13.4752 152.112 14.2895 154.661 14.4262L156.755 14.5384L156.865 12.4863L155.994 12.4396C154.979 12.3852 154.597 12.1361 154.658 10.996L154.967 5.23342L157.289 5.35788L157.394 3.38865L155.073 3.26419L155.235 0.23781L152.374 0.084456L152.212 3.11084Z" fill="black"/>
<path d="M167.519 6.58442C169.161 6.83337 169.936 8.23158 169.584 10.5508C169.236 12.8494 168.081 13.9551 166.439 13.7062C164.798 13.4573 164.023 12.059 164.371 9.76037C164.723 7.44117 165.877 6.33548 167.519 6.58442ZM166.103 15.9228C168.977 16.3584 171.87 14.8654 172.458 10.9864C173.046 7.10743 170.729 4.80351 167.855 4.36785C164.982 3.93219 162.086 5.4457 161.498 9.32471C160.91 13.2037 163.23 15.4871 166.103 15.9228Z" fill="black"/>
<path d="M191.148 19.8842C189.659 19.3631 189.132 17.7271 189.886 15.5718C190.627 13.4558 192.066 12.4859 193.555 13.007C195.024 13.5213 195.419 15.221 194.699 17.2783C193.979 19.3356 192.617 20.3985 191.148 19.8842ZM188.139 20.8767L188.606 19.5443C188.867 20.9335 189.99 21.8102 191.087 22.1942C193.673 23.0994 196.367 21.623 197.547 18.253C198.706 14.9417 197.573 12.0822 194.948 11.1633C193.615 10.697 192.266 10.9067 191.355 11.6875L193.111 6.67163L190.407 5.72534L185.436 19.9304L188.139 20.8767Z" fill="black"/>
<path d="M205.046 28.0909C207.823 29.4544 209.997 28.4641 211.27 27.2389L208.624 25.9394C207.672 26.5589 206.845 26.4998 206.007 26.0881C204.572 25.3834 204.106 23.8364 204.801 22.3275L212.068 25.8963C213.918 22.4111 213.273 19.1107 210.124 17.5642C207.105 16.0817 204.06 17.3381 202.596 20.3193C201.177 23.2074 201.767 26.4803 205.046 28.0909ZM209.144 19.4186C210.28 19.9768 211.105 21.1221 210.329 22.8451L205.689 20.5665C206.588 19.1119 208.1 18.9061 209.144 19.4186Z" fill="black"/>
<path d="M225.284 21.8294L222.878 20.2743L214.708 32.9135L217.114 34.4686L220.269 29.5873C221.227 28.1054 222.41 27.0407 223.996 28.0662C225.356 28.9452 224.941 30.1602 224.152 31.3806L220.67 36.7675L223.076 38.3226L226.896 32.4127C228.384 30.1115 228.28 28.0919 226.032 26.6382C224.881 25.8945 223.526 25.7352 222.377 26.3272L225.284 21.8294Z" fill="black"/>
<path d="M235.974 42.6545C234.813 44.0649 233.561 44.3783 232.182 43.2438C231.189 42.426 231.114 41.5041 231.628 40.879C232.42 39.9173 233.651 40.4467 236.33 42.2217L235.974 42.6545ZM234.172 45.2038C233.861 45.6469 233.582 46.1164 233.422 46.4417L235.458 48.1169C235.891 47.2638 236.428 46.4153 237.549 45.0529C238.196 44.2675 239.177 43.1398 239.402 42.8674C241.802 39.9502 240.864 37.726 238.732 35.9716C236.536 34.1644 234.017 34.1878 232.458 35.7548L234.526 37.4565C235.352 36.5504 236.427 36.6821 237.372 37.4603C238.318 38.2386 238.654 39.2678 237.559 40.5982L237.427 40.7585C233.729 38.3598 230.935 37.0825 229.247 39.1341C227.967 40.6888 228.634 42.8509 230.285 44.2096C231.584 45.2781 232.811 45.6161 234.172 45.2038Z" fill="black"/>
<path d="M248.257 44.9623L246.151 42.812L241.02 53.5335L243.126 55.6838L253.908 50.7308L251.918 48.6992L244.185 52.6121L248.257 44.9623Z" fill="black"/>
<path d="M256.998 54.4415L248.391 61.5582L250.216 63.7659L258.823 56.6492L256.998 54.4415ZM259.989 51.9679L257.942 53.6611L259.767 55.8688L261.815 54.1756L259.989 51.9679Z" fill="black"/>
<path d="M264.212 67.2178C265.148 68.5893 264.653 70.109 262.716 71.4318C260.795 72.7428 259.2 72.6511 258.263 71.2796C257.327 69.9081 257.822 68.3884 259.742 67.0774C261.68 65.7546 263.275 65.8463 264.212 67.2178ZM256.412 72.5438C258.05 74.9439 261.114 76.0442 264.354 73.8318C267.594 71.6195 267.702 68.3537 266.063 65.9536C264.425 63.5535 261.344 62.4649 258.104 64.6773C254.863 66.8896 254.773 70.1437 256.412 72.5438Z" fill="black"/>
<path d="M275.265 81.9366C275.193 81.7626 275.092 81.534 275.003 81.3701C274.386 80.2404 273.407 79.616 271.896 79.7076L273.609 78.7727L272.256 76.2947L262.453 81.6452L263.826 84.1597L268.964 81.3552C270.804 80.3507 271.707 80.922 272.384 82.161C272.583 82.5254 272.733 82.8451 272.896 83.2295L275.265 81.9366Z" fill="black"/>
<path d="M276.96 99.7442C275.944 100.108 275.452 101.167 275.788 102.105C276.156 103.13 277.204 103.626 278.221 103.262C279.178 102.919 279.673 101.87 279.306 100.844C278.97 99.9062 277.918 99.4011 276.96 99.7442Z" fill="black"/>
<path d="M288.159 118.457L277.205 120.633L277.573 122.486L288.527 120.309L288.159 118.457ZM291.967 117.7L289.727 118.145L290.095 119.998L292.335 119.553L291.967 117.7Z" fill="black"/>
<path d="M290.1 130.03L289.903 128.152L278.796 129.314L278.992 131.193L285.021 130.562C287.395 130.313 288.771 131.296 288.961 133.113C289.186 135.26 287.73 135.705 286.016 135.884L279.554 136.561L279.751 138.44L286.771 137.705C289.31 137.439 290.943 136.287 290.662 133.603C290.465 131.724 289.547 130.735 288.427 130.205L290.1 130.03Z" fill="black"/>
<path d="M291.168 145.456L291.155 143.691L289.64 143.703L289.653 145.467L282.803 145.518C280.478 145.535 280.004 146.037 280.02 148.175L280.03 149.545L281.607 149.533L281.6 148.578C281.592 147.499 281.882 147.414 283.045 147.405L289.667 147.356L289.682 149.473L291.198 149.462L291.182 147.345L293.984 147.324L293.97 145.435L291.168 145.456Z" fill="black"/>
<path d="M285.307 156.976C288.346 157.249 289.308 158.836 289.149 160.614C288.989 162.392 287.677 163.775 284.721 163.509C281.867 163.253 280.719 161.65 280.879 159.871C281.038 158.093 282.35 156.711 285.307 156.976ZM285.487 154.97C281.455 154.609 279.464 157.056 279.225 159.723C278.985 162.39 280.509 165.153 284.541 165.515C288.572 165.877 290.563 163.429 290.803 160.762C291.042 158.095 289.519 155.332 285.487 154.97Z" fill="black"/>
<path d="M287.074 182.25L276.247 179.512L275.784 181.344L286.611 184.081L287.074 182.25ZM290.837 183.201L288.624 182.642L288.161 184.473L290.374 185.033L290.837 183.201Z" fill="black"/>
<path d="M283.857 193.538L284.486 191.757L273.955 188.038L273.326 189.82L279.042 191.838C281.293 192.633 282.113 194.111 281.505 195.834C280.786 197.87 279.28 197.646 277.655 197.072L271.529 194.909L270.9 196.69L277.555 199.04C279.962 199.89 281.932 199.551 282.83 197.006C283.459 195.225 283.055 193.938 282.271 192.978L283.857 193.538Z" fill="black"/>
<path d="M278.231 207.87L278.889 206.459L277.515 205.818L276.857 207.229L268.109 203.149L267.311 204.861L276.059 208.941L275.173 210.841L276.546 211.482L277.432 209.582L278.26 209.968C279.314 210.459 279.45 210.706 279.029 211.609L278.634 212.456L280.064 213.122L280.477 212.238C281.547 209.943 281.071 209.194 278.964 208.212L278.231 207.87Z" fill="black"/>
<path d="M267.96 215.815C270.588 217.366 270.775 219.213 269.868 220.75C268.96 222.287 267.181 222.973 264.625 221.464C262.158 220.007 261.81 218.066 262.717 216.529C263.625 214.991 265.404 214.306 267.96 215.815ZM268.984 214.081C265.498 212.023 262.649 213.379 261.287 215.685C259.926 217.99 260.116 221.14 263.601 223.198C267.087 225.256 269.936 223.9 271.298 221.594C272.659 219.288 272.469 216.139 268.984 214.081Z" fill="black"/>
<path d="M261.228 236.321C261.368 236.166 261.466 236.032 261.577 235.881C262.402 234.685 262.509 233.347 261.819 232.146L263.392 233.3L264.485 231.81L255.479 225.206L254.362 226.729L259.083 230.191C261.058 231.639 261.329 232.919 260.298 234.325C260.114 234.577 259.871 234.837 259.605 235.13L261.228 236.321Z" fill="black"/>
<path d="M252.143 239.467C253.881 241.103 254.063 242.757 252.953 243.936C251.545 245.433 250.229 244.65 248.974 243.469L244.243 239.016L242.948 240.391L247.362 244.546C249.1 246.182 249.282 247.836 248.173 249.015C246.764 250.511 245.448 249.729 244.193 248.548L239.462 244.095L238.168 245.47L243.307 250.308C245.166 252.058 247.133 252.512 248.911 250.623C249.978 249.489 250.436 248.124 250.051 246.535C251.284 247.012 252.525 246.784 253.692 245.544C254.844 244.32 254.966 243.009 254.637 241.815L255.861 242.967L257.156 241.592L249.024 233.937L247.729 235.313L252.143 239.467Z" fill="black"/>
<path d="M231.183 257.729C229.322 255.417 230.124 253.732 231.498 252.625C232.549 251.779 233.622 251.821 234.286 252.646C235.275 253.874 233.864 255.597 231.418 258.02L231.183 257.729ZM230.884 251.201C229.348 252.437 228.911 253.749 229.107 255.084C228.674 254.579 228.274 254.182 227.965 253.897L226.477 255.095C227.303 255.79 228.191 256.727 229.347 258.195L230.971 260.245C232.96 262.748 234.902 262.943 237.311 261.004C239.122 259.545 239.957 257.141 238.593 255.148L237.073 256.372C237.867 257.491 237.706 258.713 236.364 259.794C235.232 260.705 233.978 260.969 232.663 259.336L232.468 259.093C235.716 255.812 237.546 253.352 235.867 251.266C234.604 249.698 232.517 249.886 230.884 251.201Z" fill="black"/>
<path d="M227.286 268.133L228.758 267.161L227.923 265.897L226.451 266.869L222.677 261.152C221.396 259.212 220.717 259.088 218.932 260.266L217.789 261.021L218.658 262.337L219.455 261.811C220.356 261.217 220.585 261.413 221.226 262.383L224.874 267.91L223.107 269.076L223.942 270.341L225.709 269.174L227.253 271.513L228.83 270.472L227.286 268.133Z" fill="black"/>
<path d="M218.372 273.685L212.9 263.95L211.253 264.876L216.726 274.611L218.372 273.685ZM220.274 277.069L219.155 275.079L217.509 276.004L218.628 277.995L220.274 277.069Z" fill="black"/>
<path d="M206.227 273.747C207.472 276.533 206.557 278.148 204.927 278.876C203.297 279.604 201.45 279.134 200.238 276.424C199.069 273.809 199.909 272.024 201.539 271.295C203.168 270.567 205.016 271.037 206.227 273.747ZM208.065 272.926C206.414 269.23 203.306 268.687 200.861 269.779C198.416 270.872 196.748 273.55 198.4 277.246C200.052 280.941 203.16 281.485 205.604 280.392C208.049 279.3 209.717 276.621 208.065 272.926Z" fill="black"/>
<path d="M192.194 285.455L193.997 284.891L190.665 274.232L188.862 274.795L190.67 280.581C191.383 282.859 190.691 284.402 188.947 284.947C186.886 285.591 186.163 284.252 185.649 282.607L183.71 276.406L181.908 276.969L184.013 283.706C184.775 286.143 186.227 287.516 188.802 286.711C190.605 286.147 191.394 285.052 191.692 283.85L192.194 285.455Z" fill="black"/>
<path d="M167.513 288.368C167.374 287.298 166.445 286.592 165.457 286.72C164.376 286.861 163.669 287.78 163.808 288.851C163.94 289.859 164.859 290.566 165.939 290.426C166.927 290.297 167.645 289.377 167.513 288.368Z" fill="black"/>
</svg>
