<svg width="134" height="60" viewBox="0 0 134 60" fill="none" xmlns="http://www.w3.org/2000/svg">
<path fill-rule="evenodd" clip-rule="evenodd" d="M43.7426 10H89.458C92.5432 10 95.1442 12.4845 95.1442 15.696V44.2438C95.1442 47.4553 92.5432 50 89.458 50H43.7426C40.6011 50 38 47.4553 38 44.2438V15.696C38 12.4845 40.6011 10 43.7426 10ZM89.458 45.8826C90.3678 45.8826 90.9704 45.1536 90.9704 44.2438V15.696C90.9704 14.7862 90.3678 14.0592 89.458 14.0592H43.7426C42.8367 14.0592 42.1718 14.7862 42.1718 15.696V44.2438C42.1718 45.1536 42.8367 45.8826 43.7426 45.8826H89.458Z" fill="white"/>
<path d="M78.8164 43.0929H68.6589V16.907H79.3005C84.3199 16.907 87.0415 18.9677 87.0415 23.8783C87.0415 26.4249 84.9225 28.2426 82.6286 29.3934C85.8323 30.2993 88.0096 32.2453 88.0096 35.5132C88.0096 40.8476 83.5326 43.0929 78.8164 43.0929ZM74.8856 27.2725H77.0648C79.1197 27.2725 80.6321 26.3647 80.6321 24.1193C80.6321 21.6349 78.6939 20.9661 76.6411 20.9661H74.8856V27.2725ZM81.3553 35.3907C81.3553 32.7255 79.664 32.1189 77.1854 32.1189H74.8856V38.8491H77.1251C79.3646 38.8491 81.3553 38.1201 81.3553 35.3907Z" fill="white"/>
<path d="M55.4767 43.0929H45.8616L45.8616 16.907H55.4767C62.2496 16.907 65.8752 21.1508 65.8752 29.8775C65.8752 37.4553 63.4568 43.0287 55.4767 43.0929ZM59.6504 30.4218C59.6504 25.1497 59.1022 21.0284 53.4218 21.0284H52.1485L52.1485 38.8491H54.3861C57.7123 38.8491 59.6504 36.1819 59.6504 30.4218Z" fill="white"/>
</svg>
