<svg width="134" height="60" viewBox="0 0 134 60" fill="none" xmlns="http://www.w3.org/2000/svg">
<path d="M101.149 16.5466C100.342 16.244 100.443 14.3279 101.25 13.622C102.359 12.7144 103.67 13.2186 103.67 14.5296C103.57 15.6389 102.158 16.8491 101.149 16.5466ZM118.192 31.7744C119.705 30.1609 124.445 21.2864 124.041 20.7821C123.537 20.2779 121.117 21.2864 119.806 22.6982C117.991 24.7151 115.974 28.4465 115.369 30.8668C114.562 33.993 115.671 34.2956 118.192 31.7744ZM121.117 36.6151C120.008 35.8083 119.907 35.304 120.008 33.7913C120.108 32.7829 120.008 31.9761 119.806 31.9761C119.604 31.9761 119.402 32.1778 119.402 32.4803C119.402 33.388 115.469 35.8083 113.957 35.8083C112.343 35.8083 110.931 34.5981 110.931 33.1863C110.931 32.3795 110.83 32.3795 109.822 33.2871C106.897 36.01 103.166 36.6151 101.149 34.5981L99.939 33.388L98.3255 34.5981C96.3086 35.9091 93.8882 36.1108 92.6781 35.0015C91.5688 33.8922 91.9722 31.9761 94.7959 25.6228C97.2162 20.2779 97.2162 20.177 99.2331 19.7737C100.342 19.572 101.25 19.3703 101.351 19.4711C101.452 19.572 100.342 22.194 98.8297 25.4211C96.1069 31.4719 95.7035 33.2871 96.9136 33.2871C98.0229 33.2871 100.443 31.2702 100.443 30.3626C100.443 28.9507 102.359 25.1185 103.973 23.0008C105.889 20.6813 109.015 19.0677 111.536 19.0677C114.663 19.0677 115.57 20.9838 113.352 22.7991C111.839 24.0092 111.032 24.1101 111.536 23.0008C112.545 20.4796 111.032 19.6728 108.814 21.7906C104.78 25.6228 102.864 34.4973 106.192 33.4888C108.511 32.7829 110.73 30.7659 112.242 27.9422C115.469 21.8914 118.898 19.3703 124.142 19.3703C125.857 19.3703 127.47 19.4711 127.672 19.6728C127.874 19.8745 127.47 21.2864 126.764 22.6982C124.747 27.2363 123.033 32.8837 122.932 35.2032C122.932 36.4134 122.73 37.4218 122.529 37.4218C122.529 37.6235 121.823 37.2201 121.117 36.6151ZM32.5735 25.6228C34.7921 23.505 35.6997 21.6897 34.8929 20.883C34.4896 20.4796 34.187 20.4796 33.5819 20.883C31.7667 21.9923 28.2371 28.749 29.9515 27.7405C30.3548 27.6397 31.565 26.6312 32.5735 25.6228ZM37.6158 36.7159C36.6073 35.9091 36.4056 35.304 36.4056 33.7913V31.8753L34.6913 33.1863C30.9599 36.01 27.632 36.6151 25.6151 34.5981C24.5057 33.4888 24.4049 33.1863 24.7074 30.9676C25.4134 25.2194 29.8506 20.0762 34.6913 19.0677C35.9014 18.866 36.4056 18.9669 37.1116 19.6728C37.9183 20.4796 38.0192 20.883 37.6158 21.9923C37.0107 23.7067 33.2794 27.3372 30.6574 28.6482C28.8421 29.5558 28.7413 29.7575 28.7413 31.4719C28.7413 32.4803 28.943 33.4888 29.1447 33.5897C30.254 34.2956 32.876 33.0854 35.0946 30.8668C37.0107 28.8499 38.0192 27.1355 40.7421 21.1855C43.8683 14.3279 44.1708 13.8237 45.5827 13.5212C46.4903 13.3195 47.2971 13.2186 47.5996 13.2186C47.8013 13.3195 46.4903 16.95 44.5742 21.2864C40.4395 30.6651 39.431 33.4888 39.431 35.9091C39.5319 37.9261 39.3302 38.0269 37.6158 36.7159ZM52.0369 25.0177C53.8521 23.1016 54.558 21.0847 53.5496 20.7821C52.2386 20.2779 49.5157 23.7067 48.4064 27.2363L48.1039 28.3456L49.4149 27.3372C50.1208 26.8329 51.3309 25.8245 52.0369 25.0177ZM51.936 40.7498C51.936 40.5481 52.3394 39.8421 52.8437 39.1362C53.3479 38.4303 53.8521 37.5227 53.953 37.2201C54.0538 36.8167 54.6589 35.4049 55.1631 33.993L56.1716 31.4719L54.0538 33.1863C50.4233 36.01 46.4903 36.5142 44.5742 34.5981C42.5573 32.5812 43.3641 28.1439 46.4903 23.8075C50.0199 18.9669 56.575 17.1516 56.575 21.0847C56.575 22.8999 53.953 25.9253 50.4233 28.0431C47.5996 29.8583 46.692 31.371 47.5996 33.0854C48.2047 34.0939 49.2132 34.0939 51.5326 32.9846C54.4572 31.5727 57.1801 28.4465 58.5919 24.7151C59.2978 22.8999 59.8021 21.3872 59.8021 21.2864C59.8021 21.1855 59.2978 21.0847 58.6928 20.9838C57.6843 20.7821 57.7851 20.7821 59.0961 20.177C59.9029 19.8745 60.9114 18.866 61.4156 18.0593C63.9368 13.622 67.3656 11.6051 72.8113 11.3025C76.4418 11.1008 76.7443 11.2017 77.8536 12.311C78.5595 13.0169 79.0638 13.7229 79.0638 14.0254C79.0638 14.7313 76.4418 17.3533 75.7358 17.3533C75.2316 17.3533 75.2316 17.2525 75.7358 16.7483C76.0384 16.4457 76.3409 15.6389 76.3409 14.8322C76.3409 12.0085 72.0045 11.2017 68.7774 13.5212C67.4664 14.4288 64.5419 18.3618 64.5419 19.2694C64.5419 19.4711 66.6596 19.4711 69.2817 19.3703C74.324 19.0677 75.2316 19.4711 72.6096 20.883C68.7774 22.8999 65.1469 33.388 68.1723 33.7913C70.391 34.0939 74.5257 26.9338 74.5257 22.4965C74.5257 21.2864 74.7274 21.1855 78.7612 20.177C83.9044 18.9669 84.6103 19.1686 84.3078 21.4881C84.207 22.3957 83.9044 23.6058 83.7027 24.1101C83.501 24.6143 84.3078 23.9084 85.518 22.5974C87.9383 19.9754 89.9552 18.9669 91.6696 19.3703C93.9891 19.9754 93.7874 21.1855 89.8544 29.8583C88.7451 32.2786 88.14 34.3964 88.14 35.6066C88.14 37.9261 87.6357 38.1278 85.9213 36.4134C84.3078 34.7998 84.6104 32.5812 87.1315 26.9338C88.2408 24.5135 89.0476 22.3957 89.0476 22.0931C89.0476 19.9754 84.3078 25.4211 81.2824 31.0685C79.1646 35.1024 78.7612 35.5057 77.3494 35.6066C76.5426 35.7074 75.8367 35.6066 75.8367 35.4049C75.8367 35.2032 76.946 32.2786 78.1562 28.9507C80.9799 21.7906 81.0807 20.883 79.2655 21.2864C77.4502 21.6897 77.2485 21.8914 77.2485 23.0008C77.2485 24.3118 74.8282 29.4549 73.2147 31.6736C70.6935 35.0015 66.4579 36.5142 64.1385 34.9007C61.7182 33.1863 63.5334 26.127 67.2647 22.5974L69.1808 20.7821L66.4579 20.9838L63.7351 21.1855L61.7182 26.7321C58.9953 34.3964 56.7767 38.9345 55.5665 39.7413C54.3563 40.5481 51.936 41.254 51.936 40.7498ZM11.7991 40.6489C11.7991 40.4472 12.2024 39.8421 12.7067 39.3379C13.2109 38.8337 15.2278 34.1947 17.2448 29.1524C21.3795 18.6643 22.4888 16.5466 24.9091 14.4288L26.7244 12.9161L22.2871 13.2186C17.1439 13.5212 14.1185 14.4288 12.3033 16.244C10.8914 17.6559 9.98382 20.0762 10.3872 21.5889C10.6897 22.8999 9.78213 22.7991 8.37027 21.2864C6.65588 19.572 7.05927 17.1516 9.58043 14.8322C12.7067 11.9076 14.8245 11.5042 28.7413 11.2017C35.498 11 41.0446 11 41.1454 11C41.2463 11 40.7421 11.5042 40.0361 11.9076C39.0277 12.5127 37.6158 12.8152 34.187 12.9161C30.1532 13.0169 29.5481 13.2186 28.4388 14.3279C27.1278 15.5381 24.4049 21.5889 20.9761 30.9676C19.06 36.3125 17.4465 39.0354 15.8329 39.943C14.4211 40.6489 11.7991 41.1532 11.7991 40.6489ZM13.6143 49.2209C6.15165 49.12 0 48.9183 0 48.6158C0 47.9099 52.3394 47.5065 94.0899 47.809C115.873 48.0107 133.824 48.2124 133.924 48.3133C134.025 48.4141 134.025 48.7167 133.924 48.8175C133.622 49.12 34.3887 49.4226 13.6143 49.2209Z" fill="white"/>
</svg>
