<svg width="88" height="88" viewBox="0 0 88 88" fill="none" xmlns="http://www.w3.org/2000/svg">
<g clip-path="url(#clip0)">
<path d="M38.72 0.313721C16.9089 2.92216 0 21.4865 0 44.0001C0 68.3006 19.6995 88.0001 44 88.0001C64.3435 88.0001 81.4623 74.1939 86.4981 55.4401H79.1555C74.3384 70.2531 60.4196 80.9601 44 80.9601C23.5876 80.9601 7.04 64.4125 7.04 44.0001C7.04 25.3804 20.8087 9.97647 38.72 7.41446V0.313721Z" fill="#FFD400"/>
<path d="M86.4981 55.4399C87.4776 51.7921 88 47.957 88 43.9999C88 19.6994 68.3005 0 44 0C42.2131 0 40.4511 0.106516 38.72 0.313544V7.41428C40.4444 7.16762 42.2073 7.03999 44 7.03999C64.4124 7.03999 80.96 23.5875 80.96 43.9999C80.96 47.9928 80.3268 51.8378 79.1554 55.4399H86.4981Z" fill="#20A89C"/>
</g>
<defs>
<clipPath id="clip0">
<rect width="88" height="88" fill="white"/>
</clipPath>
</defs>
</svg>
